<?xml version="1.0" encoding="utf-8"?>
<!-- Generator: Adobe Illustrator 22.0.1, SVG Export Plug-In . SVG Version: 6.00 Build 0)  -->
<svg version="1.1" xmlns="http://www.w3.org/2000/svg" xmlns:xlink="http://www.w3.org/1999/xlink" x="0px" y="0px"
	 viewBox="0 0 1000 465" style="enable-background:new 0 0 1000 465;" xml:space="preserve">
<style type="text/css">
	.st0{fill:#648451;}
	.st1{fill:#250F0F;}
	.st2{fill:#2C1F19;}
	.st3{fill:#362F20;}
	.st4{fill:#4D5836;}
	.st5{fill:#54663D;}
	.st6{fill:#3A231C;}
	.st7{fill:#292114;}
	.st8{fill:#5C7649;}
	.st9{fill:#6F895C;}
	.st10{fill:#536641;}
	.st11{fill:#6E835C;}
	.st12{fill:#3E2D2A;}
	.st13{fill:#5C764A;}
	.st14{fill:#FAC281;}
	.st15{fill:#FAC181;}
	.st16{fill:#FAC180;}
	.st17{fill:#648452;}
	.st18{fill:#F9F8F8;}
	.st19{fill:#628151;}
	.st20{fill:#638051;}
	.st21{fill:#422521;}
	.st22{fill:#F1BC7A;}
	.st23{fill:#63422D;}
	.st24{fill:#573B31;}
	.st25{fill:#D8A06B;}
	.st26{fill:#EDBF7F;}
	.st27{fill:#F0BC79;}
	.st28{fill:#3E241D;}
	.st29{fill:#2B1614;}
	.st30{fill:#AE8960;}
	.st31{fill:#301D1A;}
	.st32{fill:#8B674E;}
	.st33{fill:#48302B;}
	.st34{fill:#39211A;}
	.st35{fill:#432D25;}
	.st36{fill:#634330;}
	.st37{fill:#684833;}
	.st38{fill:#715951;}
	.st39{fill:#E1AE6C;}
	.st40{fill:#FDD297;}
	.st41{fill:#49302D;}
	.st42{fill:#CEA375;}
	.st43{fill:#281312;}
	.st44{fill:#F2F0EF;}
	.st45{fill:#624638;}
	.st46{fill:#653922;}
	.st47{fill:#E5E2DF;}
	.st48{fill:#DDD9DA;}
	.st49{fill:#E0DBDB;}
	.st50{fill:#7F613D;}
	.st51{fill:#DDDADB;}
	.st52{fill:#0A0405;}
	.st53{fill:#FFFFFF;}
	.st54{fill:#221111;}
	.st55{fill:#2B1918;}
	.st56{fill:#240F10;}
	.st57{fill:#271B1C;}
	.st58{fill:#E2DFDF;}
	.st59{fill:#E4E1E1;}
	.st60{fill:#D5D3D3;}
	.st61{fill:#E7E5E4;}
	.st62{fill:#EBE8E7;}
	.st63{fill:#D0CAC9;}
	.st64{fill:#E0DBD9;}
	.st65{fill:#0D0D0B;}
	.st66{fill:#EEEDE6;}
	.st67{fill:#EDEDE4;}
	.st68{fill:#E7A3A3;}
	.st69{fill:#EDEDE6;}
	.st70{fill:#EDECE5;}
	.st71{fill:#2F1D1D;}
	.st72{fill:#F5BF7D;}
	.st73{fill:#261615;}
	.st74{fill:#392A29;}
	.st75{fill:#E1AA6C;}
	.st76{fill:#433231;}
	.st77{fill:#7F583F;}
	.st78{fill:#4F3424;}
	.st79{fill:#48413F;}
	.st80{fill:#403027;}
	.st81{fill:#7A4D39;}
	.st82{fill:#58372A;}
	.st83{fill:#704C34;}
	.st84{fill:#8E643D;}
	.st85{fill:#6E4938;}
	.st86{fill:#F9CA81;}
	.st87{fill:#C4BBB6;}
	.st88{fill:#956564;}
	.st89{fill:#7B6768;}
	.st90{fill:#D5A570;}
	.st91{fill:#FAC47C;}
	.st92{fill:#543D34;}
	.st93{fill:#C7C3BD;}
	.st94{fill:#F6C07D;}
	.st95{fill:#F7F4F3;}
	.st96{fill:#35221D;}
	.st97{fill:#392926;}
	.st98{fill:#F1EDED;}
	.st99{fill:#42261E;}
	.st100{fill:#4D332A;}
	.st101{fill:#3E241B;}
	.st102{fill:#3E261D;}
	.st103{fill:#503124;}
	.st104{fill:#5F412E;}
	.st105{fill:#FED790;}
	.st106{fill:#5F3C27;}
	.st107{fill:#170707;}
	.st108{fill:#705748;}
	.st109{fill:#976640;}
	.st110{fill:#81553A;}
	.st111{fill:#716260;}
	.st112{fill:#FDCF8C;}
	.st113{fill:#C18C5E;}
	.st114{fill:#A87847;}
	.st115{fill:#785238;}
	.st116{fill:#6B4A32;}
	.st117{fill:#794B30;}
	.st118{fill:#473837;}
	.st119{fill:#675C58;}
	.st120{fill:#524643;}
	.st121{fill:#796F6C;}
	.st122{fill:#E1DCD5;}
	.st123{fill:#D4C7C2;}
	.st124{fill:#958F8A;}
	.st125{fill:#4E3F3D;}
	.st126{fill:#634938;}
	.st127{fill:#362828;}
	.st128{fill:#6C4D47;}
</style>
<g id="Laag_1">
	<path class="st0" d="M393.8,465c-48.3,0-96.6,0-144.8,0c-4.2-2.3-3.9-6.4-4-10.3c-0.2-8.3,0.2-16.5-0.4-26.3
		c-3,4.7-1.7,8.2-1.7,11.6c0,8.3,3,17-2.3,24.8c-23.7,0-47.4,0-71.1,0c-4.8-5.1-4.5-11.6-3.9-17.6c3.3-32.7,5.7-65.6,14.3-97.6
		c3-11,7.4-19.6,17.4-26.3c16-10.6,29.8-24.1,43.6-37.4c6.8-6.5,8.7-6.9,17-2.3c3.4,1.9,6.9,3.7,10,6c3.9,2.9,6.6,1.7,9-2
		c2.7-4.1,4.4-8.8,7.2-12.9c2.1-3.1,3.3-7.9,8.2-7.1c4.6,0.8,3.5,5.7,4.9,8.9c1.2,10.5,3.7,20.9,6,31.2c3.6,15.2,9.2,29.7,17.3,43.1
		c0.9,1.5,1.8,3.7,3.8,3.6c2.8-0.2,1.8-3.3,2.7-4.9c1.6-4.2,3.8-8.3,3.9-13c5.4-14,11.3-27.8,15.9-42.1c1.3-4.2,4.7-4.7,8.2-2.7
		c18,9.9,35.3,21.2,50.1,35.4c8.6,8.3,10.1,20.7,10.4,32.6c-0.5,8.7-2.1,17.2-2.3,25.4c2-2.3-2-6.8,2.1-9.2c1.8,1,2.6,2.7,2.6,4.5
		c0.4,15.2,1.8,30.3-0.9,45.4c-3.2,6.2-2.5,12.7-1.1,19.1c-0.8,6.9,1.4,14.5-4.8,20.1c-3.5,0-7-0.1-10.5-0.1c-2.4-3.3-1.3-7-1-10.4
		c0.8-9.6-3.3-19.6,1.7-29c1.5-2.7-1-4-3.3-6.4c0,14.4-2.1,27.6-2.5,40.9C395.4,461.9,395.4,463.8,393.8,465z"/>
	<path class="st1" d="M576.2,464.8c-0.8,0-1.5-0.7-1.5-1.5c-0.5-0.3-1.1-0.5-1.5-0.7c-0.1,0-0.3,0-0.4-0.1c-0.1,0-0.2,0-0.3,0
		c0.1,0,0.1,0-0.1,0c-0.2,0-0.4-0.1-0.6-0.2c-0.1,0-0.2,0-0.3,0c-0.2,0-0.3,0-0.4-0.1c-44.8,0.4-89.7,0-134.5,0.2
		c-10.8,0.1-12.9,2.4-12.2-13.1c0.1-1.3,0.4-2.6,0.8-3.8c0.5-1.9,0.6-3.8,0.6-5.7c0.5-7.4-1.1-14.8,1.3-22.1
		c1.4-11.8-0.9-23.4-1-35.1c-0.6-5.3,0.3-10.7-0.1-16.1c-0.4-7-1.8-13.8-3.1-20.7c-3.1-16.8-10.3-30.7-25.9-39.4
		c-4.5-2.5-8.4-6-13-8.5c-3.2-1.7-4.3-4.2-3.8-7.7c0-4.5-1.8-8.5-3.3-12.6c-1.5-3.1-2.4-6.4-3.5-9.6c-2.2-5-3.7-10.4-8-14
		c-3.7-3.1-2.6-5.5,0.2-8.2c5.1-4.9,8.2-11.2,11.6-17.3c6.6-11.8,8-25.1,11.9-37.6c3-4.5,7.2-8.5,5.6-14.8c-0.1-0.5,0.8-1.2,1.2-1.9
		c3.6-10.1,1.4-20.6,1.7-30.9c0.2-6.5,1.3-12.1,6.2-16.9c3.7-3.6,6.3-8.2,8.3-13.1c2.2-6.7,0.5-12.2-5.6-15.9
		c-4.9-2.9-5.2-6.4-2.1-10.8c0.9-1.3,1.6-2.6,2.2-4c5.2-11.5,3.2-15.7-9.2-18.8c-4.3-1.1-8.6-2-13-2.1c-4.1,0-4.9-1.7-3.3-5.4
		c1.5-3.5,3.1-7.3,0.3-11c-9.7-4.4-19.9-4.7-30.1-3.4c-7.9,0.9-15.8,1.8-23.7,2.8c-8.4,1.7-17.1,2.5-24.9,6.4
		c-1.1,0.7-2.3,1.3-3.5,1.7c-22.5,8.2-40.5,22.7-56.5,40.1c-2,2.2-3.4,4.6-3.7,7.5c-0.9,9.8-2.8,19.5-0.7,29.4
		c1.1,4.9,0.3,9.8-1.4,14.6c-4.9,13.7-5.2,27.4,0.1,41.1c0.8,2.8,1.9,5.4,4,7.5c1.5,1.3,3,2.7,4.5,3.9c3.3,2.5,6.7,5.6,10.8,5.9
		c11.1,0.9,13.7,8.4,14.8,17.5c0.4,3.3,0.3,6.7,0.9,10c0.9,4.6-1.3,6-5.5,6.1c-5.1,0.2-10.4-0.9-15.1,2.3
		c-6.9,6.1-7.9,14.8-10.3,22.9c-1.6,5.4-2.1,11.5-6.9,15.2c-7.1,5.6-13.1,12.5-19.8,18.4c-10.8,8.5-20.8,18-32.3,25.5
		c-5.1,3.3-8.4,7.2-10.4,12.9c-6.4,17.4-9.9,35.4-12.5,53.7c-3.7,22.5-3.4,45.1-3.2,67.8c0,3.3-0.5,6.8,2,9.6
		c3.3-1.5,0.6-5.4,3.6-8.5c-1.2,7.5,2.2,9.3,7.8,8.5c-0.7-4.9-2.1-9.6-1.6-14.6c1-11.3,1.9-22.7,3-34c2.6-25.5,6.7-50.8,13.9-75.5
		c1.5-4.9,4-8.4,8.4-11.4c17.8-12.2,33.8-26.6,49-41.8c4.5-4.5,8-7.6,14.1-2.3c3.5,3,7.9,5,11.7,7.6c3.9,2.7,7,2.7,9.5-1.9
		c3.3-6.2,6.9-12.2,10.5-18.2c1-1.6,1.3-4.4,4.1-3.8c2.2,0.5,1.7,2.9,2.1,4.6c0.3,1,0.7,1.9,1.1,2.8c3,10.8,4.5,21.8,6.4,32.8
		c1.1,4.2,2.1,8.5,3.2,12.7c3,11.9,9.6,22.2,15.5,32.8c1.1,2,2.8,4.2,5.4,3.9c3.4-0.4,2-3.6,2.4-5.7c0.2-1,0.1-2.1,0.2-3.1
		c1.7-4.2,2.6-8.7,4.6-12.7c5.1-13.5,10.5-26.9,15.1-40.6c1.7-5,3.1-4.6,6.9-2.4c11.6,6.9,22.4,15,33.8,22.1
		c16.4,10.2,23.9,24.4,24.8,42.9c-0.1,5.6-1.2,11.2,0.6,16.7c1.9,16.7,2.3,33.5,0,50.2c-2,6-0.4,12.3-0.9,18.4
		c0,7-0.1,13.9-2.4,20.6c5.8-3.6,10.7,1.8,16.2,1.7c48.1-0.3,96.1-0.2,144.2-0.2c1.7,0,3.4,0.1,4.9-0.3c0.3-0.4,0.3-0.9,0-1.6
		C576.3,464.8,576.3,464.8,576.2,464.8z"/>
	<path class="st2" d="M240.6,465c0.4-9.3,1.1-18.7-0.8-27.9c-1.2-5.5,1.1-9.4,5.6-13.7c4.2,14.1-0.1,28.3,3.6,41.7
		C246.2,464.8,243.4,463.2,240.6,465z"/>
	<path class="st3" d="M393.8,465c2.9-17.2,0.6-34.9,3.4-52.5c4.9,1.3,0.2,9.7,7.3,7.4c0,1.5,0.5,3.3-0.1,4.5
		c-6.8,13-3.5,26.9-3.9,40.5c-4-4.4-1.3-9.8-1.9-14.7c-0.4-3.2-0.1-6.6-1.6-9.9c0,6,0.1,12,0,18C397,461,398.2,464.5,393.8,465z"/>
	<path class="st4" d="M219.2,351.3c5.2,7.8,9.3,16.1,12.7,24.8c1.9,1.5,3.1,3.5,1.6,5.6c-1.3,1.8-2.4,0.3-3.3-0.9
		c-4.2-8.8-8.4-17.6-12.6-26.4C216.7,352.7,216.5,351.2,219.2,351.3z"/>
	<path class="st5" d="M404.8,372.9c0.3,3.9,0.3,7.7-3.3,12.4c1.1-16.1-1.7-30.6,1.7-45.1c3.2,5.4,0.5,11.1,0.9,16.6
		C404.4,362.2,403.3,367.6,404.8,372.9z"/>
	<path class="st6" d="M295.5,276.4c4.7,10.4,6.1,21.5,6.4,32.8C298.5,298.5,296.4,287.6,295.5,276.4z"/>
	<path class="st7" d="M404.8,372.9c-3.4-7.6-0.9-15.6-1.5-23.4c-0.3-3.1-0.1-6.2-0.1-9.2c4.1,1.6,2.9,5.3,2.8,8.1
		C405.8,356.5,405.2,364.7,404.8,372.9z"/>
	<path class="st8" d="M230.2,380.9c5.9,0.3,1.5-3,1.7-4.8c5.1,3,3.6,8.9,5.7,13.3c0.1,0.3-0.8,1.6-1.1,1.6c-0.9-0.1-2-0.5-2.6-1.1
		C231.4,387.4,230.9,384.1,230.2,380.9z"/>
	<path class="st9" d="M413.8,359.2c0.2,5.6,0.4,11.1,0.6,16.7c0,3.6,0,7.1,0,10.7C413.3,377.5,411.4,368.3,413.8,359.2z"/>
	<path class="st10" d="M219.2,351.3c-1.3,0.7-1.5,1.9-1.6,3.2c-1.5-2.1-4.3-3.3-4.5-6.4c1.5-4.5,3.1-1.6,4.7,0
		C218.9,348.8,219.2,350,219.2,351.3z"/>
	<path class="st11" d="M414.4,426.1c0,6.1,0.5,12.3-0.9,18.4C412.7,438.3,411.1,432.1,414.4,426.1z"/>
	<path class="st12" d="M328.5,349.9c0.2-4.7,1.2-9.2,4.6-12.7C332.7,341.8,331.4,346.1,328.5,349.9z"/>
	<path class="st13" d="M217.7,348.1c-1.6-0.4-3.1-2.3-4.7,0c-1.7-1.2-1.5-2.9,0.1-3.4C215.7,343.8,217.3,345.4,217.7,348.1z"/>
	<path class="st14" d="M379.9,184.3c-2.3,16-6.3,31.4-15,45.3c-12.2,19.6-19.9,17.6-36.6,12.9c-21.2-5.9-39.4-16.9-49.5-38.1
		c-3.1-6.5-8.8-10.2-16.8-10.9c-7.6-0.7-13.2-5.5-14.8-13.6c-1.5-1.9,1-4.8-1.7-6.5l0.1,0.1c-0.6-7.1-1.6-14.2,0.8-21.2
		c0.7-2.2,1.4-4,4.2-2.4c6.5,9.2,7.4,20.5,11.1,30.7c1.4,2.1,4.7,1.5,5.9,4c1.5,2.6,5.3,2.1,6.7,4.8c2,2.2,3.8,0.8,5.6-0.3
		c0.8-1.1,2-1.6,3.1-2.1c1.3-1.4-0.6-1.4-1-2c-0.5-0.5-0.7-1-0.7-1.7c0.8-2.5,3.9-0.5,4.9-2.5c-2.2-8.1-2.3-16.5-3-24.7
		c-1.4-3-0.7-6.1-0.4-9.2c0.6-0.7,1.4-1.1,2.3-1.3c15.7,3.4,31.4,2.4,47-0.1c0.9-0.1,1.7-0.1,2.6,0.1c4,1.4,3.4,5.3,4.4,8.2
		c0.5,2-0.1,4.2,0.4,6.2c1.4,5.4,0.7,9.3-6.5,9c9,10.3,14.9,10.6,26.3,1.9c-3-1.8-6.1,0.2-9.1-0.4c-0.8-0.1-1.6-0.2-2.4-0.5
		c-5.7-2.3-8.9-6.2-8.3-12.6c-0.3-4.5,0.7-7.9,6.2-7.7c0.9,0,1.7,0.2,2.5,0.4c7.8,1,15.5,1.7,23.2-0.5c2.8-1.3,5.5-3.3,8.8-1.1
		C380.9,160.5,381.3,172.4,379.9,184.3z"/>
	<path class="st15" d="M326.6,87.6c2.4,1.4,1.5,4.5,3.3,6.2c3.6,2.8,7.3,1.1,10.9-0.1c4.7-9.6,9.9-10.1,20.6-2c0.7,1.3,0,2.1-1,2.8
		c-2.1,0.8-4-0.3-6-0.7c-6.8-1.4-9.3,1-7.9,7.7c2.5,11.6,12.2,18.3,23.8,16.3c1,0.3,2,0.7,2.2,1.8c0.3,1.3-0.3,2.5-0.9,3.6
		c1.2-4.6,1.2-4.6-2.7-10.3c-1.7-2.8-3-5.7-3.2-9c0.5-2.5,0.5-5.7,4.6-3.9c1.6,1.6,3.2,3.1,4.8,4.7c3.5,6.8,3.7,14.2,3.6,21.5
		c0,3.1,0.4,6.1,1.8,9c-0.6,6.7-0.6,6.7-10.8,4.6c-4.4-0.1-8.8-0.1-13.2-0.1c-4.3,0.2-8.7,0-11,4.8c-0.8,1.3-1.8,2.4-3.3,2.9
		c-2.8-0.2-3.9-2-4.1-4.5c0-2.2,1.2-4.2,0.5-6.4c-0.1,0.5-0.2,1-0.5,1.4c-1.4,3.3-3.7,3.6-6.7,2.5c-2.3-0.9-4.5-2.2-7-2.4
		c-1.2-0.1-2.3-0.4-3.4-0.7c-6.8-1.1-13.6-1.3-20.3,0.2c-1.2,0.4-2.4,0.6-3.7,0.8c-14.3,5.4-14.3,5.4-14.7-9.7
		c0-1.3,0.1-2.6-0.7-3.7c-0.4-5,1.1-11-6.3-12.5c-1-0.7-2.6-1.2-1.6-3c6.8-2.4,13.7-4.8,20.5-7.2c0.9-1.9,2.6-1.8,4.2-1.8
		c1.2,0.3,2.1,1,2.6,2.3c0.5,2.8-1.7,4.7-2.5,7.1c-1.6,5.4,1.4,9.2,6.7,7.6c7.9-2.3,14.3-7.3,18.1-14.6c3-5.6,0.3-9.2-6.1-9.3
		c-1.3,0-2.6,0-3.8-0.5c-1-0.7-1.7-1.6-1-2.9c2-0.9,4-1.8,6-2.8C321.3,86.7,324,86.3,326.6,87.6z"/>
	<path class="st16" d="M297.2,254.7c-0.3-0.4-0.4-1.2-0.8-1.3c-14.3-4.5-13.2-16.3-13.1-28.8c6.7,4.3,12.5,8.8,18.9,12.5
		c8,4.6,16.1,8.6,25.2,9.7c5.3,0.6,6.8,3,6.9,8.1c0.2,12.4-1.7,25,3.2,37c0.7,1.7,1.1,3.5,2.1,5c3.6,5.6,1.1,9.6-3.9,11.9
		c-8.9,4.2-17.9,2.3-26.3-1.8c-4-1.9-2.7-7-4.5-10.4C301.1,282.8,299.2,268.7,297.2,254.7z"/>
	<path class="st17" d="M266.1,248.2c7.1,1.1,14.1,2.6,20.8,5.7c3.6,1.7,4.5,3.3,2,7c-5.2,7.7-9.9,15.8-14.6,23.9
		c-1.6,2.8-2.6,3.9-5.8,1.7c-4.9-3.4-10.2-6.2-15.3-9.3c-0.9-0.5-2.3-1.1-2.4-1.8c-1.5-8.8,3.7-15.8,6.6-23.4
		C258.9,248.3,262.4,247.6,266.1,248.2z"/>
	<path class="st18" d="M328.1,338.6c-1.2,3.1-2.5,6.1-4.1,10.2c-7.6-11-11.1-23.1-14.9-36.6c9.6,3.6,18,4.5,26.5,2.6
		c1.4,3.2-1.6,5.2-1.2,7.8c-0.8,2.8-1.4,5.7-3.1,8.2l0-0.1C330.2,333.4,330,336.3,328.1,338.6z"/>
	<path class="st19" d="M343.5,292.7c-4.7-11.1-4.5-21.2-4.3-31.1c0.1-4.7,3.6-2.8,5.6-2.3c2.9,0.9,8.9-0.8,7.6,4.7
		C350.2,273.1,348.4,282.4,343.5,292.7z"/>
	<path class="st20" d="M359,263.4c2.4,6.3,4.2,10.8,5.7,15.3c0.9,2.5,3.6,6.1,1.2,7.7c-3.4,2.2-7.9,1-11.9-0.4
		c-1.9-0.7-1.6-2.3-1.1-3.9C354.8,276.5,356.5,270.9,359,263.4z"/>
	<path class="st21" d="M288,94.8c9-6.9,18.1-13.8,29.7-17c-9.3,6.4-18.7,12.8-28,19.2C289.1,96.3,288.5,95.5,288,94.8z"/>
	<path class="st22" d="M379.8,134.4c-6.1-3.1-2.4-8.5-2.9-12.8c-0.4-4.4,2.3-9.2-3.2-12.6c-2.2-1.4,0.8-2.8,1.5-4.2
		c6.5,4.4,2.9,11.5,4.7,17.2C381.1,126.1,381.2,130.2,379.8,134.4z"/>
	<path class="st23" d="M281.7,124.9c1.8,3.1,1.4,6.6,1.2,9.9c-0.3,6.7,2.4,6.9,7.2,4c2.2-1.3,4.3-3,7.1-2.5c1.3,0.7,2.4,1.5,1.6,3.3
		c-3.1,2.1-6.6,3.5-9.2,6.2c-1.6,0.4-3.5-0.7-4.8,0.9c-0.5,0.1-1.1,0.2-1.6,0.3c-0.9-0.1-1-1.1-1.6-1.6
		C281.7,138.5,281.7,131.7,281.7,124.9z"/>
	<path class="st24" d="M379.8,134.4c0-4.2,0.1-8.3,0.1-12.5c2.9,8.5,2.6,16.8-1.5,24.8c-0.3,0.2-0.5,0.5-0.8,0.7
		c-0.7,0-1.4-0.2-1.9-0.6c-2.4-4-7.4-2.8-10.5-5.3c-0.6-4.5,3.6-2.5,5.3-3.9c1.5,0.3,3.1,0.4,4.4,1
		C380.3,141.5,380.9,139,379.8,134.4z"/>
	<path class="st6" d="M297.2,254.7c3.5,13.8,5.6,27.9,7.7,42C299.2,283.2,298,269,297.2,254.7z"/>
	<path class="st25" d="M266,185.8c-1.5-1.7-3-3.4-4.5-5.1c8.2,1.2,16.4,0.8,24.6,0.2c-1.6,1.2-3.2,2.4-4.7,3.5
		C276.5,187.7,271.3,187,266,185.8z"/>
	<path class="st24" d="M379.9,184.3c0.1-9.3,0.2-18.7,0.1-28c0-2.7,1.3-5.8-1.7-7.9c-0.5-0.3-0.7-0.7-0.5-1c0.2-0.3,0.4-0.5,0.5-0.5
		c0,0,0.1-0.1,0.1-0.1c0.9,0.5,2.5,0.9,2.5,1.5C381.3,160.3,382.9,172.4,379.9,184.3z"/>
	<path class="st26" d="M300.4,103.4c-0.6-0.6-1.1-1.2-1.7-1.8c2.1-4.1,6-6.5,9.4-9.3c1.5-0.7,2.9-1.4,4.4-2.1
		c0.8,0.8,1.6,1.6,2.4,2.4C312.3,99.1,307.5,102.8,300.4,103.4z"/>
	<path class="st22" d="M358.9,94.1c0.9-0.8,1.7-1.7,2.6-2.5c3,2.8,5.9,5.6,8.9,8.4c-3.1,0.2-2.9,2.6-3,4.8
		C361.5,103.7,359.2,99.8,358.9,94.1z"/>
	<path class="st27" d="M250.5,150c-4.8,1.5-4.3,5.7-4.6,9.3c-0.3,4.8-0.3,9.6-0.4,14.3c-2.4-7.1-1.3-14.3-0.3-21.4
		C245.6,149.3,247,146.6,250.5,150z"/>
	<path class="st28" d="M262.8,130.4c-0.4,5.2-3.9,6.3-9,7.4C255.7,132.6,260.2,132.7,262.8,130.4z"/>
	<path class="st29" d="M308.2,92.3c-3.1,3.1-6.3,6.2-9.4,9.3c-1.5,0.2-3,0.4-4.5,0.6C298.1,97.7,303,94.8,308.2,92.3z"/>
	<path class="st26" d="M340.9,93.7c-6.9,5-8.2,5-10.9,0.1C333.6,94.3,337.2,94.6,340.9,93.7z"/>
	<path class="st30" d="M273.8,109.4c0.5,1,1.1,2,1.6,3c-2.2,0-4.4,0-6.8,0C269.2,108.8,271.8,109.7,273.8,109.4z"/>
	<path class="st31" d="M281.6,145.3c0.5,0.5,1.1,1,1.6,1.6c0,3.1,0,6.2-0.1,9.3C280.3,152.9,282.2,149,281.6,145.3z"/>
	<path class="st32" d="M267.6,140.6c-1.3,2-2.1,4.7-5.7,4.3C262.4,141.5,264.7,140.7,267.6,140.6L267.6,140.6z"/>
	<path class="st33" d="M267.6,140.7c0.3-1.7,0.1-3.7,2.7-3.6c0.3,0,0.9,0.6,1,1C271.3,140.6,269.3,140.4,267.6,140.7
		C267.6,140.6,267.6,140.7,267.6,140.7z"/>
	<path class="st12" d="M331.4,330.9c0.1-3.1,1.2-5.8,3.1-8.2C334.9,325.9,334.3,328.8,331.4,330.9z"/>
	<path class="st12" d="M328.1,338.6c0.5-2.9,1.3-5.6,3.2-7.9C331.8,334,331.1,336.8,328.1,338.6z"/>
	<path class="st26" d="M326.6,87.6c-2.7-0.1-5.4-0.1-8.1-0.2C321.3,86,324,85,326.6,87.6z"/>
	<path class="st27" d="M245.5,173.5c4.3,1.2,1.7,4.1,1.7,6.4C245.6,178.1,245.1,175.9,245.5,173.5z"/>
	<path class="st29" d="M325.4,203.3c11.7-3.1,19.2-1.3,23.6,5.6c5,7.9,2.3,13.7-6.9,14.1c-8.2,0.3-16.6,1.2-24.2-3
		c-4.4-2.4-8.2-5.4-2.9-10.6c3.8-4.4,8.1,0.6,12.2-0.6c4.4,0.3,8.5,2,13.7,2.1c-2.7-4-6.4-3.9-10-4.2
		C328.5,206.2,325.7,206.7,325.4,203.3z"/>
	<path class="st34" d="M339.6,142.7c0.5,1.5,0.6,3.3,2.8,3.6c2.5-0.3,4.9,0,7.2,0.7c2.3,2.2,8.4-1.5,7.9,5.1
		c-3.5,0.1-7.1,0.7-10.6-0.4l0.1,0c-1.8-2.2-5.1,0.4-6.8-2.3c0.4,2.9-1.3,5.8,0.7,8.4c0.2,5.3,2.5,9.1,7.6,11c1,0.7,1.1,1.7,1,2.7
		c-0.1,0.4-0.5,0.7-0.5,1c-0.1,0.5,0.2,0.5,0.5-0.2c0.8-1,0.1-2.5,1.1-3.3c4.3-0.7,10.7-3.2,12.1,0.7c1.7,4.7-5.5,5.4-8.9,7.5
		c-7.4,4.4-19.6,0.8-23.8-6.4c-1.7-2.9-0.8-4.4,2.5-4.4c2,0,3.8,1.7,6.1,0.7c-0.3-3.9-0.7-7.9-1-11.9c-0.7-6.5-2.2-13,0.1-19.5
		c-0.1-0.4-0.1-0.9,0.2-1.2C342.3,136.3,339.5,139.8,339.6,142.7z"/>
	<path class="st31" d="M284.8,146.5c-0.4-6.6,2.9-1.3,4.5-1.4c5.2-2.9,10.6,0.5,15.8-0.6c2.1-0.4,5.5,0.4,5.4-2.8
		c-0.1-2.6-3.2-1.8-5.1-1.9c-2.2-0.2-4.6,0.6-6.7-1c-0.5-0.9-1-1.8-1.5-2.7c0.9-0.1,1.8-0.3,2.7-0.4c7.4-0.9,14.9-1,22.3,0.1
		c0.9,0.1,1.8,0.3,2.8,0.4c0.5,2.7-2.9,2.6-3.2,4.7c2.2,4.9,7.2,0.9,10.1,3.3c1,0.7,1.7,1.4,1.1,2.7
		C317,150.7,300.9,153.8,284.8,146.5z"/>
	<path class="st35" d="M358.1,151.5c-2.5-3-6.9,0-9.4-2.9c2.5-3.2,6.4-1.9,9.6-3c2.5-1.5,2.5-2.9,0-4.4c-1.4-0.9-3.6-1-3.3-3.4
		c5.1-0.8,10.3-1.1,15.5-0.1c-1.2,1.8-5.3,1.2-4.3,4.9c1.4,3.8,2,4.1,6.7,3.3c1.3-0.2,2.6-0.1,3.7,0.8c0.6,0.1,1.2,0.1,1.8,0.2
		c0,0.5,0,1,0,1.5c-2,1.1-4,2.2-6,3.3C367.6,152.6,362.8,152.9,358.1,151.5z"/>
	<path class="st36" d="M266,185.8c4.9-3.6,10.3-0.3,15.4-1.3c0,0,0.1-0.1,0.1-0.1c1.4,1.2,5.6,0.6,3.1,4.5c-1.7,0.5-3.3,0.9-5,1.4
		c-1.8,1.6-3.6,1.5-5.5,0.1C271.9,188,266.6,191.1,266,185.8z"/>
	<path class="st37" d="M319.2,139.1c1-3,4.6-0.6,6-2.8c2.4-0.3,4.6,0.8,6.3,2.2c4.3,3.4,5.2,0.5,6.2-2.8c0,6.5-0.1,13-0.1,19.5
		c-2.2-2.4,0.8-6.5-2.8-8.5c-0.5-2-2.3-2.3-3.9-2.7C327.1,141.9,322.6,141.8,319.2,139.1z"/>
	<path class="st38" d="M325.4,203.3c1.8,1.9,4.4,0.4,6.4,1.5c0.7,3.8-6.1,1.5-4.7,5.9c-4.3,1.9-7.9-2.9-12.2-1.3
		C317.2,205.4,320.8,203.5,325.4,203.3z"/>
	<path class="st24" d="M358.1,151.5c4.8,0.1,9.5,0.1,14.3,0.2c-8.4,2.4-16.9,2.9-25.3,0C350.7,151.7,354.4,151.6,358.1,151.5z"/>
	<path class="st35" d="M341,157.8c-2.5-2.2-2.6-5.7-1-7.4c1.8-1.9,5-0.8,7.1,1.3C341.5,150.2,340.3,153.1,341,157.8z"/>
	<path class="st39" d="M284.6,188.9c0.8-2.8-1.5-3.3-3.1-4.5c2.2-0.1,4.9-1.1,5.9,1.9C288,188.2,286.3,188.8,284.6,188.9z"/>
	<path class="st40" d="M274.2,190.3c1.8,0,3.6,0,5.5-0.1c-1.9,3.7-4.7,1.5-7.2,1.2C273,191.1,273.6,190.7,274.2,190.3z"/>
	<path class="st41" d="M331.7,143.6c1.3-0.3,2.7-2,3.7-0.2c0.4,0.7-0.5,2.1-0.8,3.3c-0.5,0.1-1,0.2-1.5,0.3c-0.7-0.7-1.4-1.3-2.2-2
		C330.9,144.4,331.2,143.9,331.7,143.6z"/>
	<path class="st42" d="M350.6,169c0.2,1.6,1.7,3.2-0.3,4.7c-1.6,0.3-2.1-0.4-2-1.9c0.1-1,0.1-1.9,0.2-2.9
		C349.3,168.9,350,168.9,350.6,169z"/>
	<path class="st29" d="M300.4,103.4c4.8-3.6,9.7-7.2,14.5-10.9c3.3,0,7.4-4.1,9.8,0c2.5,4.2,2.9,9.2-0.7,13.7
		c-4.2,5.3-9.3,9.7-15.4,12.7c-4.2,2.1-8.7,2.8-11.9-1.4c-3.1-4.1-1.8-8.3,1.7-11.8C299.1,105,299.8,104.2,300.4,103.4z"/>
	<path class="st43" d="M358.9,94.1c2,4.2,5.3,7.4,8.4,10.7c1.1,2.6,2.2,5.2,3.3,7.7c1.1,2.1,1.8,4.2-0.3,6.1
		c-3.3,2.9-7,3.4-10.8,1.6c-8-3.9-12.9-10.5-15.4-18.7c-1.1-3.6-1.1-8.2,2.9-10.5C351.6,88.6,355.5,91,358.9,94.1z"/>
	<path class="st44" d="M361.2,148.4c-4.1,1.5-8.3-0.3-12.5,0.2c-2.2-0.6-4.7-0.1-6.3-2.3c0.5-1,1.1-2,1.6-3c2.9-2.5,6.4-3.2,10-3.4
		C362.2,139.4,362.6,139.8,361.2,148.4z"/>
	<path class="st24" d="M361.2,148.4c1.3-6.9-1.6-8.7-8-6.9c-3,0.9-6.1,1.2-9.2,1.7c1.7-5.8,6.7-4.9,11-5.5
		C360.4,139.4,366.3,140.7,361.2,148.4z"/>
	<path class="st22" d="M370.4,118.7c0.1-2,0.2-4.1,0.3-6.1c6.1,4.4,1.4,9.8,1.7,15C368,125.1,373.9,121,370.4,118.7z"/>
	<path class="st45" d="M322.4,135.8c-7.4,0-14.9,0-22.3-0.1C307.5,133.8,314.9,133.4,322.4,135.8z"/>
	<path class="st46" d="M339.6,142.7c-1-2.7,0.6-5.9-1.8-8.3c-0.2-1.5-0.2-2.9,1.4-4.5C340.8,134.4,341.1,138.5,339.6,142.7z"/>
	<path class="st47" d="M298.8,138.9c3.7-1.4,7.6-1.1,11.4-1.4c2.9-0.2,4.3,0.9,4.2,4c-0.1,2.9-0.4,5.1-4.1,5c-7-0.2-14,0.4-20.9-1.4
		C289.1,138,295.5,140.8,298.8,138.9z"/>
	<path class="st48" d="M376.5,146.7c-1,0.2-2,0.3-2.9,0.7c-5.4,2.8-7.7,0.9-7.5-4.8C371.4,139.5,375,140.6,376.5,146.7z"/>
	<path class="st49" d="M327,210.7c-1.4-0.7-2.7-1.3-4.3-2.1c2.4-3.4,6.3-2.1,9-3.8c6.4-0.1,11.3,2.1,14.4,8.8
		C339.1,214.3,333.2,211.3,327,210.7z"/>
	<path class="st50" d="M348.4,171.7c0.7,0.6,1.3,1.3,2,1.9c-1.4,1.6-3.7,2.3-4.7,0.9C344.7,173.1,347.3,172.6,348.4,171.7z"/>
	<path class="st51" d="M331.7,143.6c-0.2,0.5-0.5,0.9-0.7,1.4c-1.5,0.1-3.2,0-4.6,0.5c-6.1,2-8-0.7-7.2-6.4
		C324.2,138.4,328.3,140,331.7,143.6z"/>
</g>
<g id="Tekstballon">
	<path class="st52" d="M735.6,116.9c0-1.9,0-3.9,0-5.8c0-0.1,0-0.2,0-0.2l0-0.3c0-28.4,0-56.8,0-85.2c0-2.2,0.7-4.7-1.5-6.4
		c-1.8,1.8-6.3,2.3-3.2,6.6c-0.1,30.5-0.2,61.1-0.3,91.6c-7.4,1.9-63.2,0.8-63.2,0.8l-20.7-0.9l-18.8,2.4l-5.5,7.7
		c0,0,91.1,0.2,96.9-1.1c5.7-1.3,8.5-1.1,8.5-1.1s5.2-0.3,6.3-1.6C736.4,121.6,735.5,119.1,735.6,116.9z M730.6,117.1
		c0.3-0.2,0.5-0.4,0.7-0.6l0,0C731.4,116.7,731.1,116.9,730.6,117.1z"/>
	<path class="st53" d="M730.6,118.3c-4.9,0.1-10.1,0.2-15,0.6c-4.9,0.4-59.6,0-69.6,1.3c-8.7,1.1-16.1-1-24.4-0.7
		c-21.5,0.6-43,0.3-64.6,0.1c-6.4,0-12.2,1.4-18,4.1c-23.2,10.9-46.2,22.3-69.5,33.2c-0.7,0.3-1.4,0.7-2.1,1
		c-2.9,1.1-6.5,2.9-8.7,0.1c-2.4-3.1,1.4-5.5,3.2-7.7c6.2-7.6,14-13.9,20.3-21.5c1-6.8-0.5-8.9-7.4-9.2c-10.9-0.3-21.8,0-32.7-0.1
		c-11.7-0.1-12.8-1.1-12.9-13c-0.1-23.4-0.1-46.8,0-70.2c0-12.2,1.5-13.7,14.1-13.8c29.1-0.1,58.2,0,87.3,0c62.1,0,124.2,0,186.3,0
		c4.8,0,10-1,14.3,2.4c1.1,28.3,0.2,56.6,0.4,84.8C731.6,112.2,732.8,116.1,730.6,118.3z"/>
	<path class="st54" d="M482.8,131.1c-8,8.7-16,17.5-24.1,26.2c2.7,1.6,5.1-0.4,7.4-1.5c25.1-11.8,50.2-23.6,75.1-35.7
		c4.1-2,8.1-2.9,12.6-2.9c30.9,0,61.8-0.1,92.7-0.2c1.4,3.4,0.6,5.2-3.3,4c-3.8-1.1-7.7-0.9-11.5-0.5c-4.3,0.5-2.4,2.6-0.7,4.4
		c-4.3,1.9-8.9,2.3-13.6,2.3c-22,0-43.9-0.1-65.9,0c-8.9,1.5-16,7.2-24.4,10c-8.2,2.8-14.9,9.1-24.1,9.5c-10.3,3.8-20.1,8.9-29.8,14
		c-2,3.8-6,4.8-9.5,6.4c-8.3,3.7-16.3,8-24.8,11c-2.5,0.3-4.9,0.3-6.6-2c-1-2.6,0.5-4.5,1.8-6.5c0.7-0.9,1.4-1.7,2.3-2.4
		c3.9-1.7,6.4-5.1,9.6-7.7c0.8-1.1,1.6-2.2,2.4-3.3c2.7-5.2,6.9-9.1,11-13.1c1.7-1.6,3.4-3.2,4.7-5.2c0.9-1.4,2.1-2.5,3.5-3.5
		c1.6-1.1,3.1-2.3,4.3-3.7c0.4-0.5,0.8-0.9,1.3-1.3c0.3-0.8,2-1.3,0.2-2.3c-12.1,0-24.2,0-36.3,0.1c-4.1,0-8.1-0.4-11.8-2.4
		c-0.2-16.1-0.5-32.2-0.5-48.3c0-19.2,0.2-38.4,0.3-57.7c1.4-1,2.8-0.9,4.1,0.3c1.5,1.6,1.8,3.5,1.7,5.7c-0.8,28.8,0,57.6-0.5,86.4
		c-0.1,5.8,2,6.9,7.2,6.7c12.7-0.3,25.4-0.2,38.2-0.1C485.1,118.1,487.4,122.6,482.8,131.1z"/>
	<path class="st55" d="M734,18.9c1.8,3.6-4.9,3-3.2,6.6c-8-0.2-16.1-0.4-24.1-0.4c-89.1,0-178.1,0.1-267.2-0.2c-7.1,0-8.4,2-8.3,8.6
		c0.4,25.7,0.3,51.4,0,77.1c-0.1,5.4,1.2,7.1,6.8,7c13.2-0.4,26.5,0,39.7-0.2c4.3-0.1,7.1,2,8.5,5.4c1.5,3.5,0.1,6.6-3.5,8.4
		c2.8-9.9,1.2-12.2-9-12.3c-12.2,0-24.4-0.3-36.6,0.1c-5.8,0.2-7.6-1.7-7.5-7.5c0.3-26.7,0.1-53.5,0.2-80.2c0-4.2-0.4-8.3-1.6-12.2
		C530.2,19,632.1,19,734,18.9z"/>
	<path class="st56" d="M730.9,30.3c0-0.9,0.2-1.7,0.6-2.4c-1.6,1.4-1.1,4.9-1.3,7.2c-0.1,1.4-0.1,2.9-0.1,4.3
		C730.6,36.4,730.9,33.4,730.9,30.3z"/>
</g>
<g id="Tekst">
	<path class="st57" d="M479.4,61.4c0.3,4.1,0.3,8.3,0.8,12.4c0.3,2.3,1.5,4.6,4.5,4.5c2.4-0.1,3.5-1.9,4.2-4
		c2.1-5.8,1.7-11.8,1.8-17.7c0-2.5-0.6-5.3,3.7-5.1c4.1,0.2,4.4,2.3,4.2,5.6c-0.4,7.1-1.6,13.9-5.1,20.2c-2,3.6-4.9,6-9.3,5.8
		c-4.2-0.2-6.6-2.8-8.2-6.2c-3.7-8.2-3-16.7-1.8-25.2c0.3-1.7,1.1-2.9,3-2.8c2.1,0,2.5,1.5,2.5,3.2c0,3.1,0,6.2,0,9.3
		C479.6,61.4,479.5,61.4,479.4,61.4z"/>
	<path d="M512.8,85c0.9-4,1.8-7.2,2.2-10.4c0.2-1.5-0.5-3.4-2.2-3.7c-2.1-0.4-2.4,1.7-2.7,3.1c-0.5,2.2-0.6,4.6-0.8,6.9
		c-0.2,1.8,0,3.9-2.7,3.8c-2.4,0-3-2-3.1-3.8c-0.7-7.5-1.3-15-1.9-22.5c-0.2-2.1-0.1-4.5,2.9-4.5c2.7,0,2.3,2.4,2.3,4.1
		c0.2,4.8-0.3,10,7.4,6.7c1.6-0.7,3.3,0.7,4.3,2.5C521.8,72.5,519.3,81.1,512.8,85z"/>
	<path d="M523.6,53.4c1.7,0.6,2.3,2,2.2,3.6c-0.7,7.6,2,10.6,9.7,7.5c6.8,6.5,5.6,17.7-2.3,20.6c-2.4-3.1,1-5.5,1.1-8.3
		c0-1,0-2,0-3.1c-1.5-0.7-3-1.4-4.5-0.1l0,0c-2.1,3.4,0.8,7.6-1.8,10.9c-3.2,0.7-4.6-0.4-4.7-3.9c-0.2-4.9-0.9-9.8-1.4-14.7
		C521.6,61.5,518.8,56.8,523.6,53.4z"/>
	<path d="M638.9,79.7c3.2,1.1,4.1-0.8,4.3-3.4c0.2-3.8,0.4-7.7,0.6-11.5c3.3-1.8,3.1,1.6,4.3,2.8c3.4,4.3,4.4,4.2,6.4-1.8
		c0.6-1.7,0.4-4,2.5-4c2.3,0,2.3,2.4,2.7,4.1c0.8,3.5,1.8,7,2.6,10.6c0.6,2.8-0.6,5.3-3.5,4.2c-2.3-0.9-3.8-4.2-5.6,0.2
		c-5.1-6.8-7.1,2.7-11,2.1C640.3,82.5,638.1,82.5,638.9,79.7z"/>
	<path d="M587.6,64.1c1.3-6,5.7-3.1,8.7-2.6c3.8,0.6,5.1,3.9,5.3,7.6c0.2,4.3-3.6,9.8,3.8,12.3c1.6,0.6-1.5,3-2,2.7
		c-4.8-4.1-11.2,1.5-15.9-2.8c-5-4.7-4.3-8.8,1.2-12.4l0.1,0c1.1-1.9,5.6,1.3,5-3.3l0,0C592,64.2,589.4,65.9,587.6,64.1z"/>
	<path d="M638.9,79.7c1,1.1,2.1,2.2,3.1,3.3c-4.9-0.1-9.9,0.3-14.7-0.5c-3.4-0.6-5.6-3.7-5.4-7.5c0.3-4.2,2.8-6.6,7.2-6.4
		c4.6,0.3,4.4-1.3,1.8-4.1c-0.5-2.4-5.1,0.6-4.5-3.3c10.3-0.4,13.1,2.5,11.7,11.9C637.8,75.5,637.5,77.6,638.9,79.7z"/>
	<path d="M570,69.5c0.5,1.5,0.2,4.1,3.1,2.4c5,0.3,4.7,3.7,4.3,7.3c-1,1.4-1.9,2.8-4,2c-1.4-1.1-1.9-5.2-4.8-1.5
		c-3.1,4-4.9,3.7-5.4-1.5c-0.4-4.1,0.5-8.4,3-14.1C568.6,65.1,569.2,67.3,570,69.5z"/>
	<path d="M576.5,79.8c0.1-3.2-0.6-6-3.4-8c2.9-3.1,2.5-8.1,6.3-10.7c2.3,4,2,8.9,4.2,13c1.5,2.7,0.6,5.6-2.7,7
		c-1.4-0.1-2.9-0.1-4.3-0.2c-0.6-0.2-0.8-0.4-0.6-0.7C576.1,80,576.3,79.8,576.5,79.8z"/>
	<path class="st44" d="M570,69.5c-1.2-1.6-2.3-3.1-4-5.4c-0.8,4.9-1.6,9.1-2.2,13.3c-0.8,5.8,1.6,4.9,4.9,2.3c1.1,2.6,1.1,5.1-2.5,4
		c-1.5-0.4-6,1.5-4.7-2.6c1.4-4.5,0-9.3,1.9-13.6c0.8-1.9,0.3-5.8,3.3-5C568.9,63.1,572,65.6,570,69.5z"/>
	<path d="M611.3,61.6c-2-2.3-1.7-5.4-2.8-7.8c-1-2.1,2.3-3.8,4.4-4c3.3-0.3,4.4,2.2,4.5,5C617.5,58.6,614.5,59.8,611.3,61.6z"/>
	<path class="st58" d="M580.9,81.2c3.7-2.7,1.2-5.9,0.7-9c-0.7-3.7-1.5-7.4-2.2-11.1c3.1,2.4,2.6,6.3,4,9.6c1.8-0.6,3.7-1.3,5.5-1.9
		c-4.3,3.8-3.8,8-1.2,12.4C585.4,79.5,583.1,83.3,580.9,81.2z"/>
	<path class="st59" d="M532.8,84.6c6.9-2.9,8.1-12.2,2.7-20.2c8.4,2.1,4.2,8.9,5.2,13.8l0,0c-2.3,3-1.5,8.9-7.8,8
		c-0.4-0.3-0.6-0.7-0.4-1.1C532.5,84.8,532.6,84.6,532.8,84.6z"/>
	<path d="M544.3,75.4c8.6,1.1,6,5.2,2.5,9.6c-1.5,0.2-3.3,1-2.8-1.8l0,0C545.1,80.6,540.4,77.9,544.3,75.4z"/>
	<path d="M672.1,80.9c-0.2,2-1.8,2.3-3.3,2.4c-1.6,0.1-3.3-0.2-3.3-2.2c0-2.1,1.4-3.3,3.5-3.1C670.6,78.2,671.6,79.3,672.1,80.9z"/>
	<path d="M680.4,78c2.3,0,3.7,1,3.9,2.6c0.3,2.7-2,2.6-3.7,2.6c-1.6,0.1-3.3-0.4-2.9-2.6C677.9,79,679.3,78.2,680.4,78z"/>
	<path class="st60" d="M523.6,53.4c-4.1,3.6-0.8,8.4-2,12.4C520.9,61.4,515.6,56.4,523.6,53.4z"/>
	<path class="st61" d="M532.8,84.6c0,0.5,0,1.1,0.1,1.6c-2.3-3.9-2.3-3.9,1.3-9.6C535.3,79.6,532.1,81.8,532.8,84.6z"/>
	<path class="st59" d="M544.3,75.4c-3.4,2.5,2.2,5.3-0.3,7.8c-1.2-1.6-2.3-3.3-3.5-4.9c0,0,0,0,0,0C542,77.5,542.2,75.3,544.3,75.4z
		"/>
	<path class="st61" d="M527.8,84.4c1.1-3.5-0.8-7.6,1.8-10.9C529.3,77.2,531.6,81.3,527.8,84.4z"/>
	<path class="st58" d="M593.9,65.5c1.1,0,2,0.5,2.2,1.6c0.2,1.4-0.7,1.6-1.8,1.6c-1.8,0-3.6,0-5.3,0
		C590.6,67.7,592.2,66.6,593.9,65.5z"/>
	<path class="st44" d="M576.5,79.8c0.1,0.4,0.2,0.8,0.2,1.2c-0.9,1.5-1.2,4.3-3,4c-1.8-0.3,0.1-2.5-0.2-3.9
		C574.4,80.7,575.4,80.3,576.5,79.8z"/>
	<path class="st61" d="M529.6,73.5c-0.1-1.5,0.6-2.6,2-2.8c1.9-0.2,2.6,1.1,2.5,2.9C532.6,74.6,531.1,74.4,529.6,73.5z"/>
	<path class="st62" d="M648.1,67.6c-1.4-1-2-3.2-4.3-2.8c0.2-0.9,0.4-1.7,0.6-2.6C647.2,63,648.3,64.8,648.1,67.6z"/>
	<path class="st59" d="M544.1,83.1c0.3,1.6,1.4,1.9,2.8,1.8c-0.8,1.4-1.9,2.6-3.4,1.4C542.2,85.3,542,83.8,544.1,83.1z"/>
	<path class="st58" d="M587.6,64.1c2,0.7,4.5-0.6,6.2,1.4C591.7,65.3,589,68,587.6,64.1z"/>
	<path d="M626.4,61.2c1,1.8,3.9,1,4.5,3.3c-2.1-0.3-4.7,1.4-6.1-1.3C624.3,62.1,625.3,61.4,626.4,61.2z"/>
	<path class="st63" d="M593,77.9c-2.3-0.5-2.8-2.1-2.6-4.1c0.2-1.7,1.1-3,3-2.6c1.6,0.3,3,1.2,3,3C596.3,76.3,595.1,77.6,593,77.9z"
		/>
	<path class="st64" d="M630.2,77.8c-1.5-0.4-2.7-1.3-2.8-3c-0.2-2.1,0.9-3.6,3-3.5c1.6,0.1,2.6,1.5,2.4,3.3
		C632.7,76.1,632.3,77.6,630.2,77.8z"/>
</g>
<g id="Dame">
	<path class="st56" d="M992.8,465.1c-60,0-120,0-180.1,0c-16.4,0-32.7-0.2-49.1-0.3c-1-0.7-2.1-0.7-3.1-0.1
		c-3.5-1.4-1.8-4.5-1.8-6.7c-0.1-13.2,0-26.3,0.1-39.5c0.2-19.3-4.1-37.3-15.8-53.1c-2-6.8-7.9-10-13.4-13.1
		c-7.6-4.4-15.7-8.1-23.5-12c-7.1-3.5-11.7-9.2-14.8-16.3c-2.1-4.8-1.2-8,4.7-8.6c8.9-1,17.5-3,24.7-8.5c5.2-4,8.2-2.3,11.2,2.4
		c2,3.2,3,6.5,3.2,10.2c0.3,7.1-1.3,13.9-2.4,20.8c-0.5,3.1-1.2,6.3,0.1,9.2c1.1,2.6,2.6,5.7,5.9,1.7c14.3-10.2,24.8-24.1,36.2-37.1
		c2.7-3.1,3.7-6.4,3.6-10.6c-0.6-32.9-6-65.2-14.2-96.9c-7.6-29.5-17.4-58.4-42.8-78.4c0,0,0,0,0,0c-0.6-0.4-1.1-0.9-1.5-1.5
		c0.5,0.8-0.3-0.2-0.4-0.4c-0.1-0.1-0.2-0.1-0.3-0.2c0,0-0.1,0-0.1-0.1c-0.8-0.6-1.6-1.2-2.3-1.8c-0.9-0.8-1.7-1.6-2.6-2.4
		c-2.9-2-5.7-4.2-8.2-6.6c-1.2-1.2-1.6-2.5-1.5-3.7c0,0-0.1,0-0.1-0.1c-3.4-1.8-6.3-4.8-10.2-5.3c-16.8-2-32.9-0.3-47.6,9
		c-1.4,4.3-4.7,3.3-8,3.4c-4.2,0.1-9.6-1.8-10.9,5c0.1,1.4-0.7,2.2-1.7,3c-17.1,13.8-32.3,29.5-44.5,47.9
		c-3.5,5.1-5.8,10.9-10.2,15.4c-6.8,8.5-7.3,19.6-12.1,29c-1.6,5.9-4.3,11.5-5.2,17.6c-3.4,18.5-4.1,36.8,3.3,54.6
		c1,1.7,2.3,3.2,3.8,4.4c2,1.3,3.9,2.7,5.2,4.9c1,1.4,2.2,2.7,3.3,3.9c3.7,4.3,8.5,7.1,13.3,9.8c3.2,2.1,3.5,5.5,4,8.9
		c0.6,3.9,2,7.3,5.6,9.4c6.8,3.2,12.5,8.2,19.3,11.5c9.6,4.7,9.6,4.7,1.5,12.2c-8.7,8.1-19.3,13.9-26.4,23.8
		c-8.8,13.2-9.9,28.4-11.2,43.6c0,2.3,0,4.5,0.6,6.7c1.8,7.9,0.5,15.9,0.9,23.9c0.1,1.9,0,3.8,0.3,5.6c0.2,0.3,0.4,0.6,0.4,0.9
		c0.5,0.1,0.9,0.4,1,1c0.2,0.6,0,1.4,0.4,1.8c0.1,0.1,0.2,0.1,0.3,0.2c3.9,0.9,7.1,3.3,11.5,3.2c50.3-0.2,100.6-0.1,151-0.2
		c2.4,0,5.3,1.2,7-1.9c5.4-2.3,9.7,2.1,14.9,2.1c77-0.3,154-0.2,231.1-0.2c2.4,0,5.3,1,7-2C999.1,464.8,995.9,465.1,992.8,465.1z
		 M740.4,462.5c-35.8,0-71.5-0.3-107.3,0.2c-12.2,0.4-24.4-0.1-36.6,0.3c-6.6,0.2-8.6-2.7-8.4-8.9c0.2-10.4,0.7-20.7,1.5-31.1
		c1.7-21.6,10.9-38.5,28-51.8c12.4-9.6,12.2-9.9,15.5,6.1c0.2,2.3,2.1,4.1,2.2,6.5c5.6,14.9,3.7,31.2,8.9,46.2
		c1.4,4.1-1,5.6-4.6,7.2c-5.2,2.4-7.6-2.9-11.6-3.2c-3.5,6.9-2.6,14-0.7,21.1c4.2,2.1,3.9-1.9,5.1-3.8c0.3-3.7,2.3-5.4,6-5.8
		c13.9-1.5,27.8-3.3,41.8-4.8c8.4-0.9,15.5-0.9,18.6,8.7c0.4,1.2,1.8,1.8,3.1,2.1c3-1.1,2.9-3.6,2.8-6.2c-1.1-3.4-1.2-5.8,3.6-6.2
		c7.7-0.6,15.4-1.3,23.1-1.5c5-0.1,7.9,1.8,10.3,6.3c3.5,6.6,4.9,13.9,7.6,20.8C746.6,462.4,743.5,462.5,740.4,462.5z"/>
	<path class="st65" d="M578.1,429.3c-0.9,10.1-0.8,20.3-0.4,30.4c0.2,0.2,0.3,0.6,0.3,0.9c0.5,0.1,0.9,0.4,1,1
		c0.2,0.6,0,1.4,0.4,1.8c0,0,0.1,0.1,0.1,0.1c0-2.8,0.2-5.6,0-8.4C578.9,446.5,581.3,437.7,578.1,429.3z"/>
	<path class="st14" d="M730.7,237.8c0.1,1.4,0.2,2.8,0.3,4.2c0.7,1,0.7,2,0.4,3.1c-1.3,4.8,0.1,9.8-0.9,14.7c-0.2,1-0.1,1.8,0,0.7
		c0-0.1,0.4-0.2,0.7-0.4c0.6,0,1,0.3,1,0.9c-0.1,3.4-0.4,6.7-0.4,10.1c0,6.7-2.5,12-8.2,15.9c-2.6,1.7-4.9,3.8-7.4,5.7
		c-21.9,16.4-45.9,16.8-68.6,1.2c-2.7-1.9-5-4.5-8.5-5.3c-5.4-4.7-13-7.6-13.9-16.3c-1.9-15.5,0.1-30.9,0.3-46.4
		c0.1-8.5,4-16.4,2.7-25.2c-0.8-5.1,6.4-4.3,8.8-7.5c0.4-0.6,0.8-1.2,1.3-1.8c12.9-7,20.9-6,36.4,5c-3.9-6.2-9.8-7.4-14.3-10.5
		c-2.4-2.4-5.1-1.7-7.8-0.5c-0.7,0.2-1.4,0.3-2.1,0.4c-3.6,0.1-7-1.2-10.9,0.7c-3.5,1.7-8.3-3.6-8.6-8.5c0.2-0.7,0.6-1.3,1.1-1.8
		c5.1,0.5,10.4-1.5,15.4,1.2c0.2,0.2,0.3,0.5,0.7,0.6c-0.3-0.4-0.4-0.9-0.1-1.5c2.3-2.9,5.4-2.6,8.4-1.7c3.5,1.1,7,1.1,10.5,1.1
		c17,0.3,34.1-0.5,51.1,0.4c1.4,0.3,2.6,1,3.6,2c1.9,2.4,2.6,4.6-1,6c-12.3,1.6-13.4,2.1-21.3,10.9c6.9-5.4,12.6-9.8,20.3-9.1
		c1.9,0.5,3.7,1,5.2,2.2c1.3,1.1,1.5,2.6,1.9,4.1c0.4,2.6-0.4,5.3,0.7,7.8c-0.2,0.4-0.1,0.8,0.2,1.2c2.1,6.8-0.4,13.9,1.4,20.7
		c0.1,1.4,0.3,2.9,0.4,4.3C731,230.1,729.2,234.1,730.7,237.8z"/>
	<path class="st66" d="M620,281.8c0.2,20.6,4.1,40.4,12.3,61.8C615.7,333,598,327,592.2,307.5c-2.1-4.2,0.2-8.8-1.4-13
		c0-4.3,0-8.7,0-13c1.6-6.3-0.7-12.9,1.3-19.2c-1.6-2.5,0.3-4.8,0.2-7.3c0.6-13.6,1.8-27.1,5-40.5c3.5-14.9,8.2-29.3,14.9-43
		c1.3-3,3-5.8,4.4-8.7c-1.3,2-2.2,4.3-3.4,6.3c-10.9,20.9-16.3,43.5-20.3,66.5c-0.4,2.3-0.5,4.6-2.4,6.4c-0.4,0.3-0.5,0.6-0.2,1
		c-1.4,3.7,0.3,7.8-1.2,11.5c-0.1,1.9-0.3,3.8-0.4,5.8c-1.3,13.3-0.3,26.7-0.5,40.1c-0.1,5.4-2.2,4.8-5.4,2.4
		c-10.9-11.3-14.3-24.8-12.3-40.1c0.3-2.1,2.3-5.3-0.6-6.1c-3.1-0.9-2.6,3-3.5,4.9c-1.2,2.6-2.1,5.2-3.2,8.2
		c-12.3-27.1,27.9-104,69.3-133.6c5.2,1.3,3.7,5.6,3.9,9.1c-2.7,15.7-6.8,31.1-11.5,46.3c-2,6.3-1.9,13.1-3.3,19.6
		c-0.1,0.8-0.1,1.7-0.2,2.5c-1.7,4.2,0.5,8.9-1.4,13.1c-0.7,2.9-0.8,5.7-0.2,8.6C618.9,250.7,618.9,266.3,620,281.8z"/>
	<path class="st16" d="M688.6,432.1c-10.4,0.2-20.7,1.6-31,3.2c-3,0.5-4.5,0.4-5.2-3.3c-3.2-16.4-6.8-32.8-10.3-49.1
		c0.5-1.3,1.5-1.5,2.7-1.6c2.5,0.5,5.1,0.6,7.7,0.8c5.5,0.6,9.2,4.2,13.7,8.4c-3.4-4.2-6.4-7.3-10.9-8.4c-2.6-1-5.2-0.5-7.9-0.8
		c-1.9-0.5-4.1-0.4-5.3-2.5c-2.1-7.5-3.6-15.1-7.3-22.1c-0.9-1.6-1.9-3.3,0.3-4.7c6.2-3.8,7.1-10.7,9.8-16.5
		c3.4-0.4,3.4,2.6,4.5,4.4c1.5,5,3.3,10,3.7,15.2c0.4,1,0.9,2,1.1,3c0.3,1.7,0.8,3.4,1.3,5c0.3,1.1,0.6,2.3,1.1,3.2
		c0.9-0.5,0.4,0.8,0.2-0.2c0-0.3-0.5-0.6-0.6-0.9c-0.4-1.3-0.7-2.6-1.1-3.8c-0.7-2.1-0.8-4.3-1.8-6.4c-0.6-1.5-0.5-3.1-0.7-4.6
		c-3.4-9.9-4.1-20.2-4.5-30.6c-0.7-6.6-1.4-13.1-2-19.7c6.6,0.1,11.2,5.4,17.5,6.4c1.7,0.3,3.3,1.3,4.9,2c1.1,3.1,4.9,1.2,6.4,3.5
		c0.3,0.7,0.4,1.5,0.3,2.3c-3.5,12.5-0.3,24.7,1.5,36.9c0.3,3.8-0.2,7.7,1.4,10.9c2.8-3.4,1.4-8.3,2.4-12.6c0.7-2.8-0.9-6.9,3.7-7.9
		c4.9,4.6,9.9,8.4,16.7,10.7c7.1,2.4,4.8,10.5,5.9,16.3c1,5-3.8,4.7-6.8,5.5c-5.3,1.4-10.6,2.7-14.7,6.6c-0.3,0.8-1.6,1.9-0.9,2.3
		c1.2,0.6,2.9,0.5,4.2-0.5c0.9-0.4,1.9-0.9,2.8-1.3c14.1-6.6,16.5-5.3,17.1,10c0.3,7.5,0.1,15,0.1,22.4c-0.8,4.7-1.5,9.4,0.2,14
		c0.9,3.1-0.6,3.6-3.2,3c-3.2-2.3-6.9-1.1-10.3-1.6C691.4,425.7,691.1,431.5,688.6,432.1z"/>
	<path class="st14" d="M637.2,382.6c5.6,16.2,3.6,34,10.1,50c1.2,3.1,0.5,4.9-3,5.5c-2.5,0.4-5.1,1-7.6,1.8
		c-5.8,1.8-8.5,0.3-7.2-6.1c-0.6-0.5-1.8-0.9-1.8-0.2c-0.5,7.9-1.8,15.9,0.7,23.7c1.1,1.7,1.6,3.7,2.8,5.3c0.3,0.6,0.3,1.3,0,1.9
		c-13.7,0.2-27.5,0.3-41.2,0.5c-3.1,0.1-4.8-0.6-4.7-4.2c0.3-18.1,0.7-36.3,4.7-54.1c3.2-14.5,11.7-25.7,23.2-34.9
		c2-1.6,3.9-3.4,5.9-5.1c11.8-10.2,11.9-10.2,15.4,5.2c0.4,1.8,2.2,3.8-0.2,5.6c-3.7,1.6-7.1,0.8-10.5-0.8
		C627.9,379.2,633.9,378.2,637.2,382.6z"/>
	<path class="st67" d="M634.3,145.5c-0.6-3.2,1.2-6.9-1.8-9.6c13.7-12.4,30.5-17,48.3-17.9c9.2-0.5,16.4,5.6,23.3,11.1
		c2.8,2.2,5.4,4.8,8.1,7.2c1.7,1.6,4.2-0.3,5.9,1.4c0.3,0.4,0.5,0.8,0.5,1.3c2,3.4,0.7,6-1.9,8.2c-0.7,0.2-1.4,0-2-0.4
		c-0.6-0.6-1.1-1.8-1.8-1.8c-1,0-0.1,0.9-0.1,1.5c2.2,4.8,4.5,9.4,4.5,14.8c-0.2,2-0.6,4-2.7,4.9c-6.7-1.2-5.9-8.4-9.5-12
		c-0.9-1.8-2-3.6-3.2-4.8c1.2,2.4,3.1,4.8,4.7,7.4c1.3,2.2,2.5,4.5,3.5,6.9c3.2,7.4,2.1,9.1-6.3,10.3c-5.6,0-11.2,0.1-16.8,0
		c-5.3,0.3-9.3-2.6-13.4-5.4c-3.2-2.6-7-4.6-9.1-8.3c0,0.1-0.4-0.3-0.4-0.3s0.3,0.4,0.4,0.5c2.1,3.7,5.9,5.5,8.9,8.1
		c1.6,1.2,3.8,2.2,2.9,4.6c-0.7,1.7-2.7,2-4.5,2.1c-1.5,0.1-3,0.1-4.5,0c-10.9-1.8-20.7-5.8-27.9-14.6c-2.3-2.5-2.5-5.5-2.4-8.6
		C637,149.6,636.8,147.1,634.3,145.5z"/>
	<path class="st68" d="M631.1,464.6l0-0.6c-3-4.2-0.9-8.6-0.3-12.9c-2.6-4.7-1.3-6.9,4.2-7.4c16.2-1.7,32.5-3.2,48.5-5.8
		c8.8-1.4,13.8,1,16.2,9.5c0.3,1.2,1.2,2.3,1.8,3.4c5.1-1,1.5-3.7,1.1-5.8c-4.3-7.6-4.3-7.7,4-8.1c9.3-0.5,18.5-0.8,27.8-1.5
		c3.9-0.3,6.1,0.5,7.6,4.5c3.1,8.1,8.5,15.5,7.2,24.9c0,0,0.3,0.3,0.3,0.3s-0.2-0.3-0.2-0.3C709.9,465.1,670.5,465.5,631.1,464.6z"
		/>
	<path class="st69" d="M715.6,146.9c1-2.7,1.9-5.3,2.9-8c9.6,6.9,17.7,15.2,22.5,26.2c18.3,42.4,27.6,86.9,29.8,133
		c0.3,6.2-0.8,11.4-5.6,16.2c-6.4,6.4-11.6,13.9-18.4,20c-2.2,0.3-2.9-1.1-2.2-2.8c1.3-3,1.2-6,1.2-9.1c2.7-24.4,1.2-48.8,1.7-73.2
		c0.1-4.2-0.2-8.2-1.4-12.2c-0.6-5.2,0.5-10.6-0.9-15.7c-3-21.2-5.7-42.5-15.7-60.8c1.5,3.6,3.9,7.9,5.3,12.6
		c0.7,2.5,1.5,5.3-1.2,7.1c-2.8,1.8-5.5,0.4-7.9-1.4c-1.3-0.9-2.4-2.1-2.9-3.6C719.7,165.8,716.4,156.7,715.6,146.9z"/>
	<path class="st16" d="M720.4,373.3c-11.8-1.1-7.6-10.1-11.8-16.2c15.2,3.2,26.6,9.5,33.2,22.8c9.2,18.5,9.7,38.5,9.4,58.5
		c0,1.2,0.4,2.7-1.3,3.1c-1.8,0.4-2-1.2-2.6-2.3c-2.7-5-5.2-10.1-8-15.1c-1.7-2.9-3.2-6.4-8.7-7.1c2.4,5,4.3,9,6.6,13.7
		c-7,0-13.1-0.1-19.3,0c-3.3,0.1-3.6-1.9-3.7-4.5c-0.4-15-0.7-30.1-1.7-45.1C712.2,376.4,715.8,376.3,720.4,373.3z"/>
	<path class="st70" d="M734,236.1c-2.9-4,0.1-8.7-1.7-12.8c-1.7-6.3,0.4-12.9-1.2-19.3c-0.8-4.5-2.4-8.8-1.8-13.5
		c-3.1-1.6-4.2-4.1-3.3-7.5c6.9-1,13.1,4.1,15,12.6c2.3,10,3.1,20.3,4.5,30.5c0.4,5.1-0.7,10.4,1,15.4c0.3,0.9,0.4,1.8,0.5,2.7
		c0.2,16.6,0.5,33.1-0.2,49.7c-1.7,2.9,0,7.8-5,8.8c-8.6-8.6-9-18.5-4.5-29.1C739.2,260.9,737.5,248.4,734,236.1z"/>
	<path class="st71" d="M743.6,226.4c-2.1-10.6-2.5-21.4-5-32c-1.6-6.6-5.7-9.3-11.7-10.3c-0.5,0.5-1.2,0.8-1.9,0.6
		c-1.9-1.2-0.8-4.2-3.1-5.2c-0.6-0.5-1.2-1-1.8-1.5c-11.5-1.8-23.1-0.4-34.6-0.8c-2.8-0.1-5.7,0.1-8.5-0.2c0.4-4.7,0.4-4.7,8.6-4.5
		c5.8,0,11.6,0,17.3,0c3.8-0.2,8.1,1.1,10.5-3.3c2.4-2.6,3.5-5.4,2.3-8.9c-1.7-5-3.3-10.1-5-15.1c1.7-4.5,3.1-1.8,4.6,0.1
		c-0.1,0.5,0,1,0.4,1.4c4.7,7.3,5.8,15.9,7.7,24.1c1.4,5.8,4.4,8.1,10.7,8.6c-1.7-9.8-6.3-18.1-10.5-27.7
		c12.5,6.4,22.4,47.3,23.2,67.9c1.2,5.3,0.3,10.7,0.6,16c3.2,17.9,0.9,35.9,1.5,53.8c0.2,4.5,1.2,9.4-2.3,13.3c-0.4,0-0.8,0-1.2,0
		c-1.6-1.6-1-3.5-0.5-5.3c2.2-6.3,1.1-12.9,1-19.2c-0.2-12.1,1.4-24.2-0.8-36.2l0,0.1C743.1,237,745.2,231.6,743.6,226.4z"/>
	<path class="st72" d="M632.5,177.9c0.5,4.7,3.4,5.9,8.8,5.2c3.4-0.4,7,0.9,10.5,1.5c-0.9,3.6-4.1,3.1-6.7,3.8
		c-2.7,0.7-5.4,1.4-7.6,3.2c-0.4,0.5-1.5,0.6-1.1,1.5c0.1,0.2,1.4-0.1,2.2,0.2c1.5,2.8,0.1,3.4-2.5,3.8c-5,0.8-8.2,2.9-5.5,8.9
		c0.8,1.9,0.5,4.7,0,6.8c-4,17.1-5.3,34.5-3.3,51.9c0.4,3.3,0.6,6-1,8.8c-0.6,0.5-1.1,0.3-1.3-0.4l0,0.1c-2.2-3.6,0.2-7.8-1.6-11.4
		l0.3-0.5l-0.3-0.5c-1.5-4.2-1.4-8.3-0.1-12.5c0.5-3.4,0.9-6.8,0.1-10.2c2-6.3-0.9-13.1,1.7-19.4l-0.1,0.1c0.3-9.7,2.8-19.2,2.8-29
		C627.8,185.7,627,180.3,632.5,177.9z"/>
	<path class="st73" d="M632.5,177.9c-3.3,10.7-4.2,21.8-5.9,32.7c-0.4,2.8,0,5.7-1.7,8.3c-1.5-8.3,2.2-16.6,0.7-25
		c-1.1,5.7-1.2,11.7-4,17c0.4-15.9,4.2-31.2,8-46.5c1.6-6.3,3.1-12.5,4.6-18.8c3.6-1,6.4-1.2,4.9,4.1c-0.9,3.3-0.2,6.6,1.2,9.6
		c2.8,4.8-4,3.8-4,6.8c-0.8,3.7-0.9,7.5-3.7,10.4C632.3,176.9,632.3,177.4,632.5,177.9z"/>
	<path class="st74" d="M590.5,242c2.5-26.4,9.3-51.5,21.8-74.9c2.8,0,2.6,1.5,1.8,3.3c-11.3,25-17.3,51.4-20.4,78.6
		c-0.2,2-0.9,4-1.4,6C590.9,250.8,593.8,246,590.5,242z"/>
	<path class="st75" d="M684.4,341.7c-4.7,7-2,15.5-4.8,22.8c-0.5,1.4-0.1,3.1-2.5,4.4c-1.7-6-0.5-12-1.1-17.8
		c-0.1-7.5-2.6-14.7-2-22.2c-0.2-5.6,1.1-11.2,1-16.8c-1-0.7-2.3-1.2-1.8-2.8c5.8-1,4.6,3.2,4.7,6.3c0,13.9,0,27.7,1,41.7
		c0.5-4.9,1-9.8,1.6-14.7C681,338.7,682.4,338.1,684.4,341.7z"/>
	<path class="st76" d="M746.4,302.9c2.9-10.2,1.4-20.6,1.5-30.9c0.1-12.1,0.9-24.3-1.3-36.3c0.6-0.7,1.1-0.7,1.6,0
		c2.7,29.1,2.2,58.1-1.9,87.1c-0.2,0.8-0.6,1-1.2,0.5C743.8,316.4,747.2,309.8,746.4,302.9z"/>
	<path class="st77" d="M648.3,320c3.5,10.2,4.1,20.9,5.9,31.4c-1.2,1.4,0.2,3.6-1.5,4.9c-2.4-5-3.4-10.5-4.6-15.9
		c-0.9-3.1-1.5-6.2-2.8-9.1C643.7,326.8,649,324.2,648.3,320z"/>
	<path class="st78" d="M656.2,380.8c5.9,0.2,8.3,5.5,12.3,8.5c1.2,0.9,2.4,2.5,1.2,4c-1.6,1.9-3.1,0.5-4.5-0.7
		c-3.8-3.3-6.6-8-12.2-8.7c-2.5-1.5-5.6,0.2-8.1-1.2c-0.9,0.1-1.7,0.2-2.6,0.3c0-1.3,0-2.7,0-4c2,0.2,4,0.3,6,0.5
		C650.7,381.1,653.8,379.2,656.2,380.8z"/>
	<path class="st79" d="M582.8,302.7c3.9,1.7,5.1,0.7,4.9-3.8c-0.7-12.9-0.9-25.8,1-38.6c0.1,14.2,0.3,28.3,0.4,42.5
		c0,1.2,0.4,3-1.1,3.3C585.4,306.7,583.8,305,582.8,302.7z"/>
	<path class="st73" d="M624.9,273.1c0.4,0.2,0.9,0.3,1.3,0.4c1.8,7.2,8.9,9.9,12.9,15.2c-6-0.7-9.8-5.8-15.4-7.7
		C619,279.4,625.3,276,624.9,273.1z"/>
	<path class="st73" d="M620,281.8c-2.5-15.6-2.2-31.2,0-46.8C620,250.7,620,266.3,620,281.8z"/>
	<path class="st80" d="M734,236.1c5.2,12.2,6.1,24.7,3.3,37.6C737.9,261,735.7,248.5,734,236.1z"/>
	<path class="st81" d="M627.8,459.3c-2-8.3-1.3-16.8-1.7-25.3c-0.1-2-2.1-5.6,1-5.9c3.8-0.4,2.4,3.4,2.5,5.8
		c-3.4,6.9-0.4,14.1-1.3,21.2C629,456.6,629,458,627.8,459.3z"/>
	<path class="st82" d="M637.2,382.6c-5-2.4-11.1-1.6-15.8-5.7c4.3-1.1,8.6-1.2,12.8,0.8C635.1,379.4,637.7,380,637.2,382.6z"/>
	<path class="st83" d="M688.8,382.5c-2.3,2.6-5.2,4-9.3,4.2c0.4-4,3.2-5,6-6C686.2,382.2,687.6,382.2,688.8,382.5z"/>
	<path class="st84" d="M688.6,432.1c0.4-0.7,0.9-1.3,1.1-2c0.5-1.7-2.7-4.1,0.6-5.2c2-0.7,2.7,2,4.2,2.9c1.6,0.6,1.4,1.7,0.6,2.8
		C692.5,428.9,691.2,433.4,688.6,432.1z"/>
	<path class="st85" d="M627.8,459.3c0.2-1.4,0.4-2.8,0.5-4.2c0.8-1.3,1.7-2.6,2.5-4c0.1,4.3,0.2,8.6,0.3,12.9
		C628.2,463.7,627.7,461.6,627.8,459.3z"/>
	<path class="st80" d="M729.2,222.2c-1.8-6.8-1.1-13.8-1.4-20.7C731,208.2,729,215.2,729.2,222.2z"/>
	<path class="st86" d="M695.2,430.7c-0.2-0.9-0.4-1.9-0.6-2.8c4,0.3,8.6-2,11.4,2.8C702.3,431.1,698.7,431.5,695.2,430.7z"/>
	<path class="st80" d="M732.3,261.2c-0.4-0.3-0.8-0.6-1.1-0.9c-1.8-5-1.1-10-0.5-15.1c0.1-1.1,0.2-2.1,0.3-3.2
		C734,248.3,732.2,254.8,732.3,261.2z"/>
	<path class="st87" d="M745.1,323.4c0.4-0.3,0.8-0.5,1.2-0.5c2.1,3.7-2.6,7.7,0.5,11.4c-0.6,1.9-1.8,3-4,2.6
		C743.5,332.4,744.3,327.9,745.1,323.4z"/>
	<path class="st73" d="M625.1,218.7c0.1,6.5,0.3,13.1-1.7,19.4C624.1,231.6,621.2,224.9,625.1,218.7z"/>
	<path class="st80" d="M731.1,204c1.3,6.4,1.6,12.8,1.2,19.3C729.5,217,731.1,210.5,731.1,204z"/>
	<path class="st79" d="M592.1,262.3c0.4,6.5-0.4,12.9-1.3,19.2C590.4,275.1,589,268.5,592.1,262.3z"/>
	<path class="st80" d="M724.8,184.2c0.7,0,1.4-0.1,2-0.1c3,1.3,0.1,4.9,2.5,6.4c-0.5,0.5-1.1,1.1-1.6,1.6c-0.6,0.8-1.3,0.9-2,0.2
		c-1.2-0.7-1.1-2-1.1-3.2C723.5,187.5,723.2,185.8,724.8,184.2z"/>
	<path class="st88" d="M702.6,445c1.9,0.8,2,2.8,2.6,4.4c0.6,1.8,2.3,4.3-0.1,5.2c-2.2,0.8-3.1-1.7-3.6-3.8
		C703.8,449.2,702.1,446.9,702.6,445z"/>
	<path class="st86" d="M709.1,427.7c-3.1-4.6-1.8-9.3-0.2-14C709,418.3,709,423,709.1,427.7z"/>
	<path class="st89" d="M745.4,298.1c-0.1,1.6-0.1,3.2-0.2,4.8c-0.5,1.1-0.7,2.7-2.3,2.4c-1.1-0.2-1.2-1.4-1-2.5
		c3.3-1.8,0.8-5.7,2.9-8C745.9,295.7,745.7,296.9,745.4,298.1z"/>
	<path class="st73" d="M623.3,248.3c0,4.2,0,8.3,0.1,12.5C620.8,256.6,620.9,252.4,623.3,248.3z"/>
	<path class="st79" d="M590.8,294.5c1.1,4.3,1.6,8.6,1.4,13C589.1,303.5,590.5,299,590.8,294.5z"/>
	<path class="st73" d="M620.2,226.4c-0.4-4.5,0.1-8.8,1.4-13.1C621.2,217.7,623.2,222.3,620.2,226.4z"/>
	<path class="st90" d="M645.3,331.2c3.1,2.4,2.7,5.8,2.8,9.1c-1-1.6-2.1-3.2-3.1-4.7C645.1,334.1,645.2,332.7,645.3,331.2z"/>
	<path class="st91" d="M673.2,309.2c0.5,0.5,1,1,1.5,1.5c0.4,0.4,0.6,0.7,0.4,1.1c-0.1,0.4-0.3,0.5-0.4,0.5c-2.6-0.3-6,0.9-6-3.6
		C670.2,308.8,671.7,309,673.2,309.2z"/>
	<path class="st73" d="M623.4,261.8c1.7,3.7,1.3,7.6,1.6,11.4C621.7,269.8,623.8,265.6,623.4,261.8z"/>
	<path class="st74" d="M589.1,254.5c0-3.9-0.6-7.8,1.2-11.5C590.4,246.9,591.7,250.9,589.1,254.5z"/>
	<path class="st80" d="M730.7,237.8c-2-3.6-0.6-7.6-1.1-11.4C732.2,230,730.7,234,730.7,237.8z"/>
	<path class="st92" d="M725.7,192.4c0.7-0.1,1.3-0.1,2-0.2c-0.1,2.7-0.1,5.4-0.2,8.1C726,197.9,726.2,195,725.7,192.4z"/>
	<path class="st93" d="M718,137.6c-2.1,0-4.6,2.2-5.9-1.4C714.3,135.9,716.7,134.5,718,137.6z"/>
	<path class="st94" d="M685.8,238.9c-2.3,0-4.6,0-8.2,0c9.7-11.7,4.6-24.4,5-37.4c4,4.9,4,4.9,8.5,0.5c0.8,3.9-1.2,7.9,1.9,11.2
		c3.1-0.2,3.2-4.6,7-4.9c0,2.4-3.6,4.8-0.6,7.2c2.7,2.7,0.5,5.6,0.4,8.4c-0.5,2.1-1.7,4.4,1.1,5.8c1.9,1.8,5.2,2.4,5,6
		c2.4,4.6-4.4,2.6-3.7,6.2c3.2-1.4,5.9-0.8,6.8,3.3c-2.2,2.2-5.8,2.2-7.8,4.8c-2.4,3-4.5,0.8-6.6-0.6c-5.7-4.3-7.1-10.5-7.4-17.1
		c-0.2-5.1,0-10.2-0.1-14.1C686.1,224.2,689.1,231.7,685.8,238.9z"/>
	<path class="st95" d="M672,228c-2.3,9.9-10.3,13.5-18.8,8.5c-10.1,0.3-13.5-4.5-9.6-13.3c0.7-1.7,1.7-3.2,2.7-4.8
		c6.9-10.8,14.8-10.6,21.2,0.5c0.9,1.6,1.5,3.3,3,4.5C671.7,224.7,672.5,226.1,672,228z"/>
	<path class="st96" d="M669.9,225.1c-3.7-1.8-3.6-6-5.9-8.8c-4.5-5.5-8.9-5.8-13.3-0.4c-0.8,1-1.6,2.1-2.3,3.1
		c-6.9,10.4-6.3,12.9,4.8,17.5c-1.2,6.6-5.9,3.2-9.1,2.8c-3.5-0.4-6.7-2.1-6.2-6.4c1.1-9.9,5.3-18.3,13.5-24.2
		c4.8-3.5,9.6-1.7,13.1,2.4c2.8,3.3,4.8,7.2,7.1,10.9C672.8,223.9,672.6,225.2,669.9,225.1z"/>
	<path class="st97" d="M697.8,224.3c0.5-2.9,1.1-5.9,1.6-8.8c0.9-1.2,1.8-2.5,2.9-3.5c9.1-8.7,14.8-7.6,20.1,4
		c1,2.3,1.6,4.8,2.3,7.2c1.1,4.2,1.2,8.4,0,12.7c-4.1,1.5-7.9,7.5-12.4,0.5c6.9-7.7,7.3-9.4,3.3-17c-1.1-2.2-1.8-5.3-5.2-4.8
		c-3,0.4-4.8,2.5-6.4,5.1c-2,3.3-0.7,8.5-5.6,10.2C696.7,228.2,697.5,226.2,697.8,224.3z"/>
	<path class="st98" d="M699.5,229.5c1.6-6,1.3-12.8,7.9-16.5c3.4-1.9,6.2-2,8.5,1.7c2.8,4.7,4.6,9.9,5.3,15.2
		c0.8,6.4-6.5,3.3-8.8,6.5c-2.1-0.2-4.2-0.5-6.3-0.7c-2.1-1.5-4.1-3-6.2-4.6c-0.6-0.3-0.8-0.6-0.7-1
		C699.2,229.7,699.4,229.5,699.5,229.5z"/>
	<path class="st99" d="M685.8,238.9c0-10.3,0-20.5,0-30.9c3.9,0.1,3,2.8,3,4.6c0.3,6.7,0.2,13.5,0.5,20.2c0.3,6.1,1.7,11.8,7.3,15.4
		c1.4,5.8-2.5,5.4-6.1,5.4c-0.9,0.1-1.8,0.4-2.5,1c-0.7,0.5-1.5,0.8-2.3,1.3c-4.8-1.1-10.2-4.7-8.8-8.7c2-5.8,7.1,2,11.4-0.4
		C687.6,244.5,686.7,241.7,685.8,238.9z"/>
	<path class="st100" d="M634.4,164.4c-0.3-2,0.4-2.8,2.6-2.3c2.3,0.6,3.3-0.7,3.5-2.9c7,8.2,16.2,12.2,26.5,14.2
		c2.6,2.2,7-1.2,9,2.8c11.8,0,23.6,0,35.3,0.2c2.9,0,6.2-1,8.7,1.7c-18-0.1-36-0.1-53.9-0.2C654.2,176.5,643.7,171.7,634.4,164.4z"
		/>
	<path class="st101" d="M635.9,190.9c4.2-4.9,10.6-4.4,15.9-6.3c0.4,0.3,0.7,0.3,1.1-0.1c2.6-1.6,5.2-1.9,7.8-0.1
		c6,1.8,11.3,4.9,15.7,9.5c1.4,1.5,2.9,3.5,1.2,5.5c-1.8,2-4.3,1-5.4-0.7c-8.8-14-21.2-9.4-33.2-6.5
		C637.4,193.2,636.1,193.3,635.9,190.9z"/>
	<path class="st72" d="M634.4,164.4c4.2,0.4,7.8,2,11.1,4.7c5.9,4.9,13.4,6.5,20.5,8.8c-3.6,0.5-7,0.1-10.4-1.2
		c-2.7-1.1-5.4-1.5-7.4,1.4l0,0c-5.1-1.5-10.8,3.1-15.5-1.6C633.2,172.5,633.8,168.4,634.4,164.4z"/>
	<path class="st102" d="M719.8,187.6c-9.4,0.5-16.1,6.1-22.7,13c-0.1-10.9,11.2-19.1,22.8-17.6c1.8,0.9,3.9,1.8,3,4.3
		C722.6,188.5,721,188.3,719.8,187.6z"/>
	<path class="st103" d="M688.7,251.5c2.8-0.8,7.5,3.1,7.9-3.3c1.1,0.2,2.5,2.5,2.7,1.2c1-7.1,6-4,9.7-4.2
		c-0.6,7.8-7.5,8.1-12.6,10.6c-1.6-0.9-3.3-0.3-5-0.6C689.9,254.4,688.1,253.9,688.7,251.5z"/>
	<path class="st104" d="M679.4,282.6c6.3-1.2,12.2-5,19-1.8c1.9,0.9,4.7,1.3,3.7,3.7c-1.4,3.3-3.7,1.1-5.5-0.4
		c-3.6-1.1-7.3-1.2-10.9,0.1l-0.5,0.3l-0.6,0C682.6,284.5,679.9,286.5,679.4,282.6z"/>
	<path class="st105" d="M730.7,245.2c0.2,5,0.3,10.1,0.5,15.1c-0.4,0.7-1.5,2.2-1.5,1.5C729.7,256.3,727.9,250.6,730.7,245.2z"/>
	<path class="st92" d="M719.8,187.6c5.3-1.3-0.3-3,0.2-4.5c3.2,0.2,2.5-1.6,1.8-3.4c3,0.3,2.8,2.6,3,4.7c-0.1,1.7-0.1,3.3-0.2,5
		C723,188.7,721.4,188.1,719.8,187.6z"/>
	<path class="st106" d="M635.9,190.9c1,0.4,2.1,0.9,3.1,1.3c-0.1,0.3-0.3,0.7-0.4,1c-2.2,0.9-3.9,3.6-7,2.3
		C631.6,192.7,634,192,635.9,190.9z"/>
	<path class="st107" d="M691.8,254.4c1.6,0.2,3.4-0.2,4.6,1.4c-3.6,1.2-7.1,1.7-10.7,0.1c0.5-0.5,1-0.9,1.6-1.4
		C688.8,253.3,690.3,253.5,691.8,254.4z"/>
	<path class="st80" d="M724.7,235.8c0-4.2,0-8.4,0-12.7C726.5,227.4,728.1,231.6,724.7,235.8z"/>
	<path class="st108" d="M669.9,225.1c1.2-0.7,1.7-1.8,1.7-3.1c1.7,1.9,5.3,3.7,0.4,6.1C671.3,227,670.6,226,669.9,225.1z"/>
	<path class="st72" d="M660.7,184.4c-2.6,0-5.2,0.1-7.8,0.1C655.5,181.8,658.1,179.6,660.7,184.4z"/>
	<path class="st109" d="M679.6,285.8c-1.9,1.2-4.3,3.2-6,1.4c-1.7-1.8,0.9-2.7,2.5-3.4C677.5,284.2,678.8,284.5,679.6,285.8z"/>
	<path class="st110" d="M685.7,284.2c3.6-2.5,7.3-2.6,10.9-0.1C692.9,284.1,689.3,284.1,685.7,284.2z"/>
	<path class="st110" d="M679.6,285.8c-1.4-0.2-2.8-0.4-3.5-1.9c0.9-1,1.9-1.5,3.3-1.3c1.2,1.9,3.4,1.3,5.1,1.8
		C682.9,284.9,681.2,285.3,679.6,285.8z"/>
	<path class="st72" d="M648.2,178.1c1.9,0.1,4.1-0.4,5.2,2.3C650.7,181.8,649.4,180.1,648.2,178.1
		C648.2,178.1,648.2,178.1,648.2,178.1z"/>
	<path class="st111" d="M614,170.5c-0.3-1.3,0-2.8-1.8-3.3c1.7-4.1,2.8-8.6,8.6-10.9C619.8,162.3,617.2,166.5,614,170.5z"/>
	<path class="st91" d="M676.2,327.7c-0.1,7.8-0.1,15.6-0.2,23.3c-4.3-11.4-5.1-23.1-3.8-35.1c0.2-1.8,1.3-1.9,2.6-2.2
		C676.8,318.3,674.3,323.2,676.2,327.7z"/>
	<path class="st112" d="M676.2,327.7c-2.8-4.4-0.8-9.3-1.4-13.9c0-0.5,0-1,0-1.5c0-0.5,0-1.1,0-1.6
		C677.9,316.1,675.4,322,676.2,327.7z"/>
	<path class="st113" d="M657.8,365c1.5,2,2.2,4.3,2.1,7.3c-3,0.1-3.8-1.6-3.9-4C656.9,367.4,656.2,365.6,657.8,365z"/>
	<path class="st114" d="M657.8,365c-0.3,1.3-0.4,2.7-1.8,3.3c-0.5-1.6-1-3.2-1.4-4.7c0.5-0.6,0.6-1.6,1.6-1.7
		C656.8,363,657.3,364,657.8,365z"/>
	<path class="st115" d="M656.2,361.9c-0.5,0.6-1.1,1.1-1.6,1.7c-0.4-1.6-0.8-3.2-1.2-4.7c0.5-1-0.1-2.5,1.2-3.3
		C656.1,357.5,656,359.7,656.2,361.9z"/>
	<path class="st116" d="M644.8,382.6c2.8-0.2,5.7-1.1,8.1,1.2C650.1,383.9,647.3,383.9,644.8,382.6z"/>
	<path class="st117" d="M654.6,355.6c-0.4,1.1-0.8,2.2-1.2,3.3c-0.2-0.9-0.4-1.8-0.6-2.7c0.3-1.7-0.2-3.6,1.5-4.9
		C654.4,352.8,654.5,354.2,654.6,355.6z"/>
	<path class="st116" d="M656.2,380.8c-2.7,0-5.7,1-8-1.4C651,379.2,653.8,379,656.2,380.8z"/>
	<path class="st118" d="M715.4,170.7c-3.3,3-7.3,3.1-11.4,2.5c-0.1-0.6,0.1-1,0.7-1.2c4.8,0.3,7.9-0.3,4.3-6.1
		c-1.8-3-3.1-6.3-4.7-9.4c-0.9-2-1-3.5,1.8-3.4c2.4,4.3,4.8,8.5,7.3,12.8C715.6,166.8,715.2,168.9,715.4,170.7z"/>
	<path class="st119" d="M675.9,176.3c-2.6-2.1-6.6,0-9-2.8c2.7-1.1,5.6,1.3,8.3-0.4c0.6-2.9-3.2-2.4-3.4-4.6c-0.1-0.8,0.2-1.1,0.9-1
		c4.7,0.2,7.6,5.4,12.6,4.5c0.5,0.1,0.8,0.3,0.8,0.6c0,0.4-0.1,0.6-0.2,0.6C682.4,173.8,678.4,172.4,675.9,176.3z"/>
	<path class="st120" d="M706.1,153c-1.4,0.7-1.7,2-1.8,3.4c-3-3.7-5.8-7.4-8.3-13C701.9,145.4,704.2,149,706.1,153z"/>
	<path class="st121" d="M672.7,167.5c-0.3,0.3-0.7,0.6-0.9,1c-5.1-0.9-7-5.4-9.8-8.8c-0.4-1.6,0.3-2.2,1.9-1.9
		C666.4,161.4,671,163.1,672.7,167.5z"/>
	<path class="st122" d="M685.9,173.2c-0.1-0.4-0.3-0.8-0.6-1.2c6.5,0,12.9,0,19.4,0c-0.3,0.4-0.5,0.8-0.7,1.2
		C697.9,173.2,691.9,173.2,685.9,173.2z"/>
	<path class="st123" d="M715.4,170.7c-1.4-1.3-1.7-3.1-2-4.9c2.1-1.2,1.6-3.5,2.2-5.4C716.8,163.9,718.9,167.4,715.4,170.7z"/>
	<path class="st93" d="M715.2,145.5c-1.5-0.5-3-3.5-4.6-0.1c-1.3-1.1-2.2-3.1-0.4-3.7C713,140.7,715.1,142.1,715.2,145.5z"/>
	<path class="st124" d="M663.9,157.8c-0.6,0.6-1.3,1.3-1.9,1.9c-1.5-1.1-3.2-2.6-1.2-4.1C662.4,154.4,663.3,156.3,663.9,157.8z"/>
	<path class="st125" d="M748.2,235.8c-0.5,0-1.1,0-1.6,0c0-5.3,0.1-10.6,0.1-15.9C748.7,225,748.8,230.3,748.2,235.8z"/>
	<path class="st76" d="M745.4,298.1c-0.2-1.1-0.4-2.2-0.6-3.3c0-17.6,0-35.1,0.1-52.7c0.4,0.4,1,0.7,1,1.1
		C746.6,261.5,747.6,279.8,745.4,298.1z"/>
	<path class="st125" d="M743.6,226.4c2.6,5.1,1.3,10.5,1.2,15.8C743.1,237,743.3,231.7,743.6,226.4z"/>
	<path class="st126" d="M699.5,229.5c0.1,0.5,0.2,1.1,0.3,1.6c-5.3-0.9-2.6-4.2-2-6.8C698.4,226,697.9,228.1,699.5,229.5z"/>
	<path class="st127" d="M652.7,225.1c0.8-3.5,0.7-7.6,4.7-7.5c4.7,0.1,5.4,4.1,5.3,8c-0.1,3.3-0.1,7.7-4.7,7.4
		C653.3,232.7,653.8,227.9,652.7,225.1z"/>
	<path class="st97" d="M715.7,223.4c-0.2,3.4-0.2,7.1-3.8,7.2c-4.5,0.2-4.8-3.8-4.8-7.2c0-3-0.1-7.3,3.5-7.5
		C715.6,215.7,714.8,220.8,715.7,223.4z"/>
	<path class="st128" d="M691.8,254.4c-1.5,0-3,0-4.5,0c-0.8-1.6-1.3-3.1,1.4-3C689.7,252.5,690.8,253.4,691.8,254.4z"/>
</g>
</svg>
