<?xml version="1.0" encoding="utf-8"?>
<!-- Generator: Adobe Illustrator 22.0.1, SVG Export Plug-In . SVG Version: 6.00 Build 0)  -->
<svg version="1.1" xmlns="http://www.w3.org/2000/svg" xmlns:xlink="http://www.w3.org/1999/xlink" x="0px" y="0px"
	 viewBox="0 0 1000 465" style="enable-background:new 0 0 1000 465;" xml:space="preserve">
<style type="text/css">
	.Slagschaduw{fill:none;}
	.Afgeronde_x0020_hoeken_x0020_2_x0020_pt{fill:#FFFFFF;stroke:#000000;stroke-miterlimit:10;}
	.X_x0020_actief_x0020_weerspiegelen{fill:none;}
	.Zachte_x0020_schuine_x0020_kant{fill:url(#SVGID_1_);}
	.Schemering{fill:#FFFFFF;}
	.Gebladerte_AS{fill:#FFDD00;}
	.Pompadoer_AS{fill-rule:evenodd;clip-rule:evenodd;fill:#51AEE2;}
	.st0{fill:#EDEDE4;}
	.st1{fill:#240F0F;}
	.st2{fill:#250F10;}
	.st3{fill:#648451;}
	.st4{fill:#EDEDE5;}
	.st5{fill:#FDFCFC;}
	.st6{fill:#51413F;}
	.st7{fill:#332524;}
	.st8{fill:#28261D;}
	.st9{fill:#6C605C;}
	.st10{fill:#EDEDE6;}
	.st11{fill:#EEEDE6;}
	.st12{fill:#EDECE6;}
	.st13{fill:#302221;}
	.st14{fill:#F1F1EB;}
	.st15{fill:#B5AFA9;}
	.st16{fill:#837773;}
	.st17{fill:#B2ABA5;}
	.st18{fill:#F2F0E9;}
	.st19{fill:#A39E97;}
	.st20{fill:#B3ADA7;}
	.st21{fill:#F0F0E9;}
	.st22{fill:#7A706D;}
	.st23{fill:#635654;}
	.st24{fill:#968C87;}
	.st25{fill:#524543;}
	.st26{fill:#614F4E;}
	.st27{fill:#887F7A;}
	.st28{fill:#CDCBC3;}
	.st29{fill:#473938;}
	.st30{fill:#544543;}
	.st31{fill:#C2B8B4;}
	.st32{fill:#605552;}
	.st33{fill:#A3A098;}
	.st34{fill:#5E524F;}
	.st35{fill:#DEDED6;}
	.st36{fill:#C1BBB4;}
	.st37{fill:#5C4D4A;}
	.st38{fill:#837A75;}
	.st39{fill:#AAA49D;}
	.st40{fill:#96938B;}
	.st41{fill:#BFBAB3;}
	.st42{fill:#807973;}
	.st43{fill:#9F9992;}
	.st44{fill:#746C66;}
	.st45{fill:#9C948F;}
	.st46{fill:#FAC282;}
	.st47{fill:#FAC181;}
	.st48{fill:#2B1613;}
	.st49{fill:#2A1715;}
	.st50{fill:#F3C17C;}
	.st51{fill:#648253;}
	.st52{fill:#F0BD7C;}
	.st53{fill:#DEAE79;}
	.st54{fill:#E7B777;}
	.st55{fill:#3F251E;}
	.st56{fill:#4B3027;}
	.st57{fill:#58392C;}
	.st58{fill:#454F35;}
	.st59{fill:#A57C55;}
	.st60{fill:#644430;}
	.st61{fill:#422520;}
	.st62{fill:#5B3F30;}
	.st63{fill:#668B52;}
	.st64{fill:#DCD5D0;}
	.st65{fill:#40302F;}
	.st66{fill:#C6BBB6;}
	.st67{fill:#25100F;}
	.st68{fill:#241413;}
	.st69{fill:#341E1A;}
	.st70{fill:#442B21;}
	.st71{fill:#CC9D67;}
	.st72{fill:#503326;}
	.st73{fill:#F7CC81;}
	.st74{fill:#432820;}
	.st75{fill:#F9BF8C;}
	.st76{fill:#FCCE84;}
	.st77{fill:#F6CA81;}
	.st78{fill:#FACA7F;}
	.st79{fill:#824F3D;}
	.st80{fill:#734E35;}
	.st81{fill:#9F734C;}
	.st82{fill:#FED693;}
	.st83{fill:#FBCF95;}
	.st84{fill:#4B2116;}
	.st85{fill:#8C6348;}
	.st86{fill:#80552E;}
	.st87{fill:#F1EFEE;}
	.st88{fill:#E9E5E5;}
	.st89{fill:#271210;}
	.st90{fill:#F3C690;}
	.st91{fill:#F8F6F6;}
	.st92{fill:#F2EFEF;}
	.st93{fill:#6B4F3A;}
	.st94{fill:#D3A269;}
	.st95{fill:#040405;}
	.st96{fill:#E8E8E2;}
	.st97{fill:#DC3231;}
	.st98{fill:#D6D5D4;}
	.st99{fill:#E8414F;}
	.st100{fill:#D2D3CF;}
</style>
<linearGradient id="SVGID_1_" gradientUnits="userSpaceOnUse" x1="0" y1="-65.14" x2="0.7071" y2="-64.4329">
	<stop  offset="0" style="stop-color:#E6E6EB"/>
	<stop  offset="0.1738" style="stop-color:#E2E2E6"/>
	<stop  offset="0.352" style="stop-color:#D5D4D8"/>
	<stop  offset="0.5323" style="stop-color:#C0BFC2"/>
	<stop  offset="0.7139" style="stop-color:#A4A2A4"/>
	<stop  offset="0.8949" style="stop-color:#828282"/>
	<stop  offset="1" style="stop-color:#6B6E6E"/>
</linearGradient>
<g id="Laag_1">
	<path class="st0" d="M974.9,405.3c-2.4-13.6-2.4-27.5-4.5-41.2c-4.8-31.8-12-63-26.6-91.9c-2.5-4-3.8-8.7-7.4-11.9
		c-0.7-0.4-1.3-0.7-2.1-0.9c-2.2-0.6-4.5-1.2-6.8-1c-6.9,0.8-8.9-2.7-8.6-9c0.4-6.8,0.9-13.7-1.2-20.4c-0.2-0.5-0.4-1-0.8-1.3
		c-19.6-14.4-39.2-28.7-61.9-38.1c-2.1-0.9-4.3-2-6.5-0.1c-0.4,1.7,0.6,2.8,1.6,4.1c2.4,3.4,4.9,7.1,4.2,11.3
		c-0.9,5.1,1.3,7.4,5.8,8.1c3.8,0.6,5.3,2.6,5.3,6.2c-0.1,11.6,0.3,23.2-0.5,34.7c-0.1,1.7,0.2,4-2.7,3.7c-2.1-0.2-2.9-1.5-2.8-3.4
		c1.2-0.8,0.8-1.7,0.2-2.6c0.1-2.1-0.3-3.9-3.5-4.2c-0.1,0-0.2,0.1-0.3,0.1c-0.8-1.6-0.2-3.7-0.1-5.5c0.4-6.1,0.9-12.1,1.6-18.2
		c0.7-5.7-0.7-8.7-7.2-6.8c-4.8,1.4-7.8,1.3-8.5-5.5c-1.3-11.1-6.3-13.2-17.3-9.6c-2.1,0.7-5,3-6.6,0.5c2.5-0.9,5.1-1.4,7.7-1.8
		c7.1-1.2,10.3-7.9,5.8-13.5c-2.4-3,2.1-2.1,1-3.5c-1.3-2.5-3.9-3.2-6.3-4c-11-3.8-22.3-6.6-33.9-6.3
		c-39.4,0.9-74.1,14.9-104.6,39.4c-5.9,4.7-11.8,10-14.4,17.7c-0.2,1.6,0,3,1.3,4.1c4.3,0.7,1.3,2.1,0.4,3.3
		c-2.1,2.4-4.4,4.5-6.6,6.7c-3,4.1-7.2,7.6-6.9,13.4c1.3,2.5,2.7,4.7,5.8,2c0.4-0.3,0.6-1.4,1-0.9c1.2,1.4-2.1,10.6-4,11.4
		c-9.9,4.1-10.8,6.3-6.7,16.4c2.5,2.2,1.9,4.5,0.1,6.8c-0.6,0.9-1.2,1.7-1.7,2.6c-3.2,6.9-5.6,14.3-9.4,21c-2.7,6.2-4,13-7.5,18.9
		c-2.3,5.1-1.6,11.3-5.1,16.1c-0.8,1.3-1.4,2.8-1.6,4.3c-0.4,3.1,0.1,6.3-1.5,9.1c-2,5.5-3,11.2-4.8,16.8
		c-2.4,14.6-3.7,29.3-5.6,43.9c-1.6,11.6-0.7,22.7,2.9,33.7c1.2,1.3-0.5,3.6,1.6,4.6c12.6,1.8,25.3,0.3,37.9,0.8
		c0.9,0.1,1.8-0.1,2.6-0.6c0.4-1.7,1-3.4-1.8-3.1c-6.5,0.7-12.9,0.7-18.4,0.7c5.5,0,11.9-0.1,18.3-0.7c0.9-0.7,1.3-1.7,1.2-2.9
		c-2.7-8.7-5.1-17.4-5.2-27c1.6,4.9,3.5,9,5,13.3c0.7,2.2,1.6,4.3,2.6,6.3c3.7,4.5,4.5,12,12.4,12.2c4.6-0.2,9.2,0.2,13.9,0.2
		c87.6,0,175.1,0,262.7,0c2.3,0,4.6,0.1,7-0.1c9.2-0.7,10.5-2.1,10.8-11.2c0.3-8.7-1.1-17.5,1-26.2
		C975.4,419.5,974.8,412.4,974.9,405.3z"/>
	<path class="st1" d="M417.5,177c-0.2,4.8-0.3,9.6,1,14.4c1.2,0.9,1.1,1.8,0.1,2.7c-0.5,7,0.7,13.8,2.1,20.5
		c1.3,6.5,0.4,10.6-7.4,10.3c-1.4,0-2.8,1-4.2,1.5c-1,3.2,1.6,3.1,3.4,3.7c2.1,0.7,4.8,0,5.7,2.9c0,0.9,0.1,1.8,0.1,2.7
		c-0.8,3.5-3.8,4.4-6.4,4.4c-5.9,0-5.7,3.3-6.3,7.8c-1.2,9.4-0.4,19.3-5.4,28c-2.3,4.9-3.2,10.2-4.2,15.5c1.1,4.7-0.9,8.6-3.6,12.2
		c-2.7,4.4-4.6,9.2-6,14.2c0,1.8-0.5,3.4-2,4.5c-0.3,0.6-0.6,1.1-0.9,1.7c-0.2,2.5-0.8,4.9-3.4,6c-2.2,1.6-3.4,3.9-4.5,6.3
		c-1.5,4.6-1.8,9.3-0.2,13.9c1.1,3.8,2.5,7.4,4.8,10.5c1.7,1.3,2.2,2.9,1.7,4.9c0.9,2.7,1.8,5.3,2.7,8c2.2,2.7,2.7,5.8,2.2,9.1
		c1.2,5.3,1.6,10.7,3.9,15.8l0,0c0,3.1-0.8,6.4,1.8,9c2.2,0.3,3.5,1.8,4.5,3.6c0.7,1.4,1.8,2.1,3.3,2.4c9.1,1.9,14.7,9.3,21.4,14.6
		c10.5,8.2,20,17.6,29.9,26.5c2.1,1.9,5.9,3.8,4.6,8.1c-2,3.1-5.2,1.7-8,2.1c-1.6-0.8-3.4-0.9-4.9-1.9
		c-14.5-8.1-26.4-19.7-38.7-30.6c-7.5-6.6-16.8-11.2-22.4-19.9c-2.9-3.9-6.8-2.8-10.5-2c-3.5,0.7-7,1.2-10.6,0.3
		c-1.2-0.3-2.6-0.8-2.6-2.3c0-1.5,1.4-2,2.6-2.4c4.8-1.5,10.1-1.1,14.7-3.4c1.6-9-2.6-17.1-4.4-25.6c-0.9-4.3-2.6-8.4-4.8-13.5
		c0.2,5-0.5,8.9-2.1,12.6c-1.1,1.9-1.2,5.5-3.9,5c-3-0.6-2.9-4.1-2.4-6.5c1.7-7.6,0.6-15.4,1.3-23c0.4-4.5-1.3-5.7-5.2-5.6
		c-1,0,0.2,0.1-0.8-0.1c-3-0.7-8,1.8-8.6-2.4c-0.6-3.5,5-3.4,7.3-5.7c16.2-12.9,24.6-30.7,30.2-49.8c4.8-16.5,9-33.2,9.7-50.5
		c0.1-3.1,1.2-6,1.9-9c1.7-22,2.4-44.1-0.3-66c-1.5-5.4-2.5-11-2-16.6c1-11.2-1.4-21.7-6.1-31.7c-0.1-0.8-0.1-1.6-0.1-2.4
		c-0.1-2.7,0.4-5.4-0.9-7.9c-0.3-0.7-0.6-1.4-0.9-2.1c-1.9-3.2-4.7-5.6-8.2-6.5c-12.2-3.3-24.4-4.9-35.9,2.6
		c-4.3,3.1-5.7,7.6-6.4,12.5c-0.6,1.4-0.6,3-1.2,4.5c-1.1,3.2-3.5,4.3-6.7,3.8c-3.1-0.5-4.2-2.6-4.3-5.5c0-1,0.1-2,0.1-3.1
		c0.5-14.6-6.5-21.6-21.3-21.8c-15.5-0.2-30.7,0.8-44.1,9.9c-2.3,1.6-4.9,2.9-5.8,5.9c-3.4,4.8-2.5,10.3-2.5,15.5
		c0.1,5.9-2.1,9.8-8.3,10.8c-0.7,0.3-1.5,0.4-2.2,0.5c-1.6,0.1-3.3,0.1-3.9,0.1c0.5-0.2,2,0.1,3.5,0c3.6,0,5.6,1.3,5.9,5.4
		c2.5,31,6.4,61.7,11,92.4c0.1,11.4,0.1,11.6-11.3,11.1c-7-0.3-14.3,1.6-21.1-2c-4.6-4-5.5-9.7-6.9-15.2c-1.7-6.7-3.1-13.5-3.9-20.5
		c-0.3-2.6-0.7-5.1-1.7-7.5c-1.5-3.4-3.4-6.9-7.5-7c-4.4-0.1-5.9,4-6.8,7.4c-4.7,18-3.3,35.7,4.4,52.7c3.1,6.8,8.9,10.7,16,12.3
		c6.7,1.5,9.6,5.3,9.2,12c0.4,15.4,2.7,30.8,1.8,46.2c-0.3,5,1.6,8.4,6.4,10.2c22.1,8.3,34.3,23.5,37.7,47.5
		c2.1,15.4,7.9,30.3,11.5,45.6c2.1,8.8,6.9,13.6,15.5,15.9c10.9,2.9,21.5,5,32.7,2c5.3-1.4,10.3-2.9,11.7-9.5
		c1.4-6.7-1-11.3-6.4-15.2c-9-6.6-17.7-13.6-19.2-25.8c-1.7-11.9-5.7-23.5-4.6-35.7c0.3-3.1-0.9-8.3,3-8.3c3.8,0,2.8,5.2,2.9,8.4
		c0.1,9.3,1.8,18.3,4.8,27.1c3,3.9,4.4,8.6,6.6,12.9c1.9,3.6,4.1,7,7.1,9.8c5.2,4.9,10.2,10.4,18.1,4.7c4.5,5.5-0.6,11.3,0.6,16.9
		c-1,10.3-3.9,20.2-7.1,30c-1,3-2,6.5-5.7,7.7c-0.8-0.8-1.6-1.5-2.4-2.3c-2.8-4.2,0-8.5-0.3-13.8c-7.7,4.1-15.8,3.8-23.9,3.9
		c-8.3,0.2-16.3-1.4-24.4-4.3c-1.8,6.1,4.4,11.8,0,17.2c-0.6,0.6-1.2,1.1-1.7,1.7c-3.3,0.5-3.3-2.6-4.8-4.1
		c-7.9-17.2-12.1-35.5-17.1-53.6c-3.5-12.3-6.5-24.8-9.9-38.2c-4.4,19.5-9.4,37.8-12.6,56.6c-1.5,8.9-4.3,10.1-12.9,7.3
		c-17.3-5.6-28.7-18.7-40.3-31.4c-6.3-6.8-6.9-7.5-14.7-2.3c-23.2,15.5-43.7,34.3-64.4,52.8c-3.3,2.9-6,6.4-10,8.4
		c-3.3,1.2-5.6,3.9-8.2,6.1c-3.2-1.1-6.5-2.2-9.7-3.3c6.6-9.5,15.6-16.7,24.1-24.3c19.3-17.3,38.6-34.8,60.5-49
		c3.1-2,4.5-4.6,4.9-8.2c2-16.9,6.5-33.3,10.1-49.9c3.6-16.5,9.7-19.7,26.1-14.7c0.9,0.3,1.8,0.5,3.3,0.8
		c-0.8-14.6-1.6-28.7-2.4-42.7c-0.2-2.7-1.1-5-4-6c-20-6.8-23.9-23.8-25.8-41.8c-0.6-5.9-1.3-12.1,0-17.7
		c5.1-21.8-3.9-42.1-6.1-63.1c-0.4-3.8-1-7.7-1.7-11.5c-2-11.7,0.3-21.5,12-27.2c2.5-1.2,3.9-3,3.7-6.1C187,76.6,202,60.9,220,47.5
		c27-20.1,58.4-28.8,91.2-32.6c16.4-1.9,32.9-2.8,49.4-2.3c2.5,0.1,5.5-0.7,6.9,2.2c1.3,2.7-1.5,4-2.7,5.9c-1.5,2.4-3,4.7-5.6,8.7
		c5.4-1.1,9.3-1.8,13.1-2.6c1.1-0.8,2.2-1.5,3.6-1.7c5.8-0.4,11.5-0.3,17.3-0.1c6.2,2.8,13.9,1.1,19.1,6.8c1,0.7,2,1.6,3.1,2.1
		c9.2,4.6,10,6.8,6,16.3c-0.9,2.1-1.6,4.2-2.4,6.3c-0.1,7-5.7,10.9-9,16.1c-0.7,1.2-2.7,1.6-2,3.6c6.1,0.2,12.3,0.4,18.4,0.6
		c1.5,0.4,2.8,1.2,3.3,2.8c-0.1,5.7-0.1,11.3-0.2,17l0-0.1c-1.1,1.5-1.2,3.1-1.1,4.9c0.8,6.8-0.7,12.9-5.1,18.2
		c-2.9,3.8-4.2,8.3-5.8,12.7C419,147.1,418.1,162.1,417.5,177z"/>
	<path class="st2" d="M576.5,419.7c1-5.1,1.9-10.1,2.9-15.2c-1.7-3.3-0.5-6.6,0.8-9.4c3.5-7.6,5-15.9,8.2-23.6
		c0.1-0.7,0.3-1.5,0.5-2.2c0.4-1.4,1-2.7,1.1-4.2c0.3-2.2,1-4.3,2.1-6.1c3-4.5,4.9-9.4,5.8-14.8c0.2-0.7,0.4-1.4,0.6-2.1
		c3.3-7.6,8.1-14.5,10.2-22.6c0.7-2.4,1.9-4.6,3.3-6.7c1.4-2,2.5-4.1,3.5-6.3c1.4-2.7,2.8-5.5,4.1-8.3c3.3-7.3,8.6-13.5,11.9-20.7
		c0.3-0.6,0.7-1.2,1.1-1.8c1-1.4,2.2-2.6,3.2-4c2.9-4.6,6.6-8.7,8.8-13.7c5.4-6.7,9-14.4,12-22.3c6.6-10.5,14.3-20.1,22.8-29.1
		c0.5-0.5,1-1,1.5-1.5c1.6-1.4,2.9-3,4-4.7c0.4-0.6,0.9-1.1,1.4-1.6c11.7-8,23.5-16,36.2-22.5c35.7-15.6,72.2-18.3,109.6-7.2
		c14.7,5.4,29.3,11.2,43,18.9c7.5,5.3,15.8,9.2,23.6,14.1c6.9,5,15.1,7.8,21.5,13.6c1.3,1.1,2.6,2.2,4,3.2c1.7,1.2,3.3,2.5,4.8,3.9
		c6.6,6.2,12.7,12.8,18.5,19.8c5.3,4.8,9.5,10.7,14.3,16c13.4,17.5,24.4,36.3,31.3,57.4c3.1,8.6,5.2,17.5,7.3,26.3
		c-1.1,7.8,0.5,16.2-0.6,23.4c-2.1,12.9,2.1,25.1,0.6,37.6c-4-1.1-3.2-4.8-3.9-7.6c-5.1-21.4-7.9-43.4-15.7-64.2
		c-10.6-33.9-28.4-63.5-53.1-89.1c-3.9-4-8.7-7.3-10.9-12.8c-21.6-15.1-42.5-31.4-67.9-40.1c-6.4,1-11.9-0.6-16.7-5
		c-22-8.8-44.3-12.4-67.8-6.3c-25.6,6.7-50.1,15.5-71,32.2c-7.5,5.9-14.2,12.6-19.4,20.8c-1.4,3.5-4,6.5-4.3,10.4
		c0.2,1.3,0.5,2.5-0.1,3.8c-2.8,4-5.6,7.9-8.4,11.9c0.6,2.5-0.6,4.5-2,6.4c-32.4,44.8-54,94.3-66.2,148.1c-0.3,1.2-0.7,2.5-1.2,3.7
		c-3.7,13.1-5.9,26.3-5.4,40c0.1,3.7,0.8,7.7-2.2,10.9c-3.6-1-7.2-2.1-10.8-3.1c-3.8-0.4-2.2-3.4-2.2-5.3
		C571.1,445,574.1,432.4,576.5,419.7z"/>
	<path class="st3" d="M384.6,412.8c19.9,16.5,38.4,34.8,60,49.2c1.2,1,1.5,2.1,0.1,3.1c-1.6,1.1-3.5,0.6-5.2,0.6c-31,0-62,0-93,0
		c-1.7,0-3.7,0.8-4.9-1.2c0.1-0.7,0.1-1.4,0.2-2.1c5.7-11.8,8.3-24.5,10.7-37.2c0.7-1.2,0.5-2.5,0.7-3.7
		c2.1-11.1,2.1-11.2,13.5-11.3C372.7,410,379.5,406.3,384.6,412.8z"/>
	<path class="st4" d="M982.1,330c5.2,12,8.3,24.6,10.9,37.3c2.4,12,4.9,24,7.4,36c0,20.3-0.1,40.7-0.1,61c-6.9,2.8-14,1-21,1
		c-4.6,0-4-4.6-4.1-7.7c-0.2-12.5-0.1-25-0.1-37.6c-0.1-6.2,0.5-12.5-0.4-18.7c-0.4-0.8-0.6-1.6-0.7-2.5c-0.8-5.5,0.6-11.1-1.4-16.5
		c-1.3-14.9-4.6-29.5-6-44.4c0.2-1,0.3-2.1,1.1-2.9c1.8-2,3.4-5.6,6.3-4.6c3.3,1.1,1.5,4.9,1.9,7.6c0.4,3-1.6,6.1,0.6,9.1
		c-1.2-4.2-0.8-8.4-0.2-12.5C976.7,331.6,978.8,330,982.1,330z"/>
	<path class="st5" d="M290.5,463.1c0.8-7.3-3.8-13.6-4.6-21.6c18.6,7.7,36.7,9.6,55.3,1.9c0.7,6-1.5,11.1-1.9,16.5
		c-1.6,1.1-1,2.8-1.1,4.4c-2.3,2.6-5.3,1.1-7.9,1.2c-10.8,0.2-21.6,0.1-32.3,0C295.2,465.5,292,466.7,290.5,463.1L290.5,463.1z"/>
	<path class="st6" d="M977.2,418.4c0.8,13.5,0.8,27.1-0.3,40.6c-0.4,4.8,1,6.6,5.8,6.1c5.8-0.6,11.8,0.8,17.6-0.8
		c-1.2,3.5-4.3,2.2-6.6,2.2c-105.3,0-210.6,0-315.8-0.1c-4.4,0-8.7-0.1-13.1-0.1c-0.5-0.3-0.7-0.7-0.5-1c0.2-0.4,0.3-0.5,0.5-0.5
		l0,0c1-0.8,2.1-1.6,3.4-1.8c2.2-0.4,4.5-0.3,6.6,0.4c1.4,0.6,2.8,0.1,4.2,0c92.6-0.1,185.1,0,277.7,0c2.6,0,5.2-0.2,7.7,0
		c6.3,0.5,8.8-2,8.4-8.5c-0.4-7.2-0.1-14.4-0.1-21.6c0-0.9,0-1.8,0.1-2.8c1.7-3.6,1-7.7,2.2-11.5C975.6,418.2,976.3,418,977.2,418.4
		z"/>
	<path class="st7" d="M627.9,381.7c-2.1,19.3-5.8,38.4-6.5,57.9c-0.3,6.9-0.4,13.9,1.6,20.6c-3.6-2.7-2.7-7.1-4.3-10.7
		c0,3,0,6,0,8.9c-0.4,0.1-0.9,0.3-1.3,0.4c-4.9-3.6-4.7-9-4.2-14.1c1.7-19.3,4.8-38.3,8.3-57.3c0.6-3,1.3-6.1,4.3-7.9
		C627.3,379.3,628.5,379.6,627.9,381.7z"/>
	<path class="st8" d="M93.8,466.4c0.6-4,3.1-6.2,6.7-7.5c2,3,5,3.1,8.2,3.4c8.2,0.6,16.5,0.3,24.7,0.3c45.5,0,91.1,0,136.6,0.1
		c5.5,0,10.8-0.5,15.9-2.5c1,1.6,2,3.1,3,4.7c-2,2.3-4.8,1.5-7.2,1.5C218.9,466.4,156.4,466.4,93.8,466.4z"/>
	<path class="st8" d="M576.5,419.7c-1.3,10.1-2.7,20.2-3.9,30.3c-0.5,4.5-1.9,9.1,1,13.3c-0.5,3.2-2.9,3.2-5.2,3.2
		c-35.3,0-70.5,0-105.8-0.1c-1.1,0-2.3-0.9-3.4-1.4c35.5,0.1,71.1,0.1,106.6,0.3c4.4,0,5-1.7,4.9-5.4
		C570.2,446.2,572,432.8,576.5,419.7z"/>
	<path class="st8" d="M341.5,464.3c33,0.2,65.9,0.4,98.9,0.5c2,0,4.4,0.3,4.1-3c1.8,0.2,2.9,1.3,3.6,2.9c-2.5,1.6-5.3,1.6-8.2,1.6
		c-30.5,0-61.1,0-91.6-0.1C345.9,466.4,343.1,467.4,341.5,464.3z"/>
	<path class="st7" d="M584.3,466.4c-0.5-17.8-0.3-35.6,6.1-52.6c3.4,3.3,1.9,7.2,1.2,10.9c-1.9,10.1-3.7,20.3-3.3,30.7
		c0.2,4.8,1.9,7.1,6.9,7c6.2-0.1,12.4-0.5,18.5,0.2c3.6,0.4,3.5-1.9,4.4-3.8c0,0,0.6-0.4,0.6-0.4c4,7.5,3.8,8-4.5,8.1
		C604.2,466.6,594.2,466.5,584.3,466.4z"/>
	<path class="st8" d="M290.5,463.1c1,0.7,2.1,2.1,3.1,2.1c14.8-0.1,29.7,1.5,44.5-0.8c-1,2.5-3.2,2.2-5.2,2.2c-12.3,0-24.6,0-36.9,0
		C293.6,466.5,290.6,467.1,290.5,463.1z"/>
	<path class="st9" d="M664.7,464.8c0,0.5,0,1.1,0,1.6c-11.6,0.1-23.1,0.1-34.7,0.1c-2,0-4.2,0.5-5.5-1.7
		C638,464.8,651.3,464.8,664.7,464.8z"/>
	<path class="st10" d="M618.1,458.9c1.8,4.9,0.3,6.8-5.1,6.5c-6.9-0.4-13.9-0.4-20.8,0c-5.1,0.3-6.7-1.3-6.7-6.5
		c-0.1-12.7,2-25.1,4.1-37.5c0.4-2.5,0.6-5.1,0.9-7.6c12.6-57.1,35.8-109.5,70.9-156.4c1.2,0.8,3.4,2.5,3.5,2.4
		c2.2-2.6,4.1-2.9,4.3,1c0.2,4,2.2,9.5-2.9,11.4c-10.3,3.9-11,4.6-7.6,14.9c1,1.7,0.3,3.4-0.2,5.1c-0.7,1.6-1.9,3-2.3,4.8
		c-2.9,6.3-6.3,12.3-8.6,18.8c-3.5,6.3-4.4,13.5-7.9,19.8c-2.4,5.8-3,12.1-5.2,18c-0.2,0.9-0.4,1.8-0.7,2.7
		c-1.8,2.2-1.4,4.9-2.1,7.4c-2.6,5.1-2.2,11.3-5.7,16.2c-5.8,23.7-10,47.6-10.3,72C615.8,454.3,616.1,456.9,618.1,458.9z"/>
	<path class="st11" d="M982.1,330c-5.6,5.1-6.6,11-2.8,17.6c1.1,1.9,1.2,3.4-0.9,4.3c-2.3,1.1-1.9-1.2-2.8-2.2
		c-4.9-5.5,0.4-11.7-1.7-17.9c-1.9,1.5-3.8,3-5.7,4.6c-4.4-2.4-3.7-7.1-4.8-10.8c-3.2-11.1-6.8-22-11-32.7c-0.5-2.8-0.9-5.7-2.9-8
		c-2.4-4.4-4.1-9.1-6.8-13.3c-1.4-3.9-2.9-7.8-6-10.8c-1.1-1.6-1.4-3.7-2.8-5.1c-0.3-1-1,0.6-0.1,0.1c0.1-0.1,0.6,0.7,0.8,1.1
		c0.5,1.2,0.5,2.4-0.4,3.4c-4.2,0.1-8.5,0.3-12.7,0.1c-3.2-0.2-4.2-2.9-4.3-5.5c-0.3-8.4-0.3-16.8-0.4-25.2
		c15.5,12.1,27.6,27.5,38.5,43.6C967.1,290.8,976.5,309.5,982.1,330z"/>
	<path class="st12" d="M854.9,248.3c-4-1.2-2.8-4.4-2.7-7c0.4-5.6,0.8-11.3,1.5-16.9c0.6-5.3-0.7-8.1-6.7-6.3
		c-4.5,1.3-7.2,1.2-7.9-5.1c-1.2-10.3-5.8-12.3-16.1-8.9c-2.4,0.8-5.8,3.8-6.9-1.7c1-3.8,4.6-3,7.1-3.4c8.3-1.4,10.1-3.6,6.5-11.4
		c-2.4-5.2,1.8-1.9,2.6-2.9c5.6,1.7,11.1,3.3,16.7,5c5,2.4,4.3,8.8,8.5,11.8c1.4,1,2.1,1.8,0.3,3.4c-5.6,4.9-0.6,6.2,2.9,6
		c6.3-0.3,7.2,2.7,7,7.9c-0.4,11.8-0.2,23.6-0.4,35.4c0,2.1,0.6,5.3-2,5.6c-2.1,0.3-4.9,1.7-7.2-0.9c-1.8-2.1-2.3-3.4-0.6-5.8
		C859,250.9,858.3,248.6,854.9,248.3z"/>
	<path class="st13" d="M943.9,271.2c4.6,3.1,4.7,8.7,7.1,13.1c1.5,2.2,1.7,5,3.2,7.3c6,14.6,10.6,29.5,14.1,44.9
		c1.8,15.4,5.4,30.5,6.2,46.1c1.8,5.7-1,11.7,1.5,17.3l0-0.1c0.9,6.2,1.1,12.5-0.1,18.7c-0.6,3.5,1.1,7.2-1.2,10.5
		c-2.5-5-0.6-10.3-1.2-15.5c-0.3-3,0.7-6.1-0.8-8.9c-2.9-22.9-4.8-46-9.7-68.7c-4.4-20.8-11.5-40.7-20.1-60.1
		c-0.6-1.4-1.8-2.6-1.3-4.3C942.3,270.7,943.1,270.6,943.9,271.2z"/>
	<path class="st14" d="M677.2,463.1c-0.1-2.5,1.8-2,3.2-2c93.6,1.6,187.1,0.2,280.7,0.7c6.9,0,10.7-1.4,10.3-9.9
		c-0.4-8.5-2.1-17.4,1.3-25.8c1.1,1.9,0.5,3.9,0.7,5.9c0,8-0.4,16,0.1,23.9c0.4,6.3-1.3,8.4-7.9,8.2c-23.7-0.4-47.3-0.1-71-0.2
		c-72.1-0.1-144.1,0.2-216.2-0.1C678.1,463.7,677.6,463.4,677.2,463.1z"/>
	<path class="st15" d="M782.3,417c-4.3-8.4-5.2-17.5-5.9-26.6c1.7-7-0.7-14.3,1.4-21.3c-1.5-6.7-2.7-13.4,1.6-21.5
		c-0.3,22.8-1.3,44.1,4.3,64.8C782.5,413.8,784.1,415.9,782.3,417z"/>
	<path class="st16" d="M663,459c-5.3-10-6.2-20.6-4.6-31.6c3.5,5.5,5.9,11.3,7.5,17.4c-0.4,0.8-0.6,1.7-0.8,2.6
		c-0.1,2.2,0.2,4.3,0.6,6.5c0,0.7,0,1.3-0.2,2C665.1,457.3,664.4,458.5,663,459z"/>
	<path class="st17" d="M918.7,340.9c3.5,7.5,4.5,15.6,5.8,23.6c-0.8,4.7-0.8,9.4,0,14.1c0.4,2.3,0.6,4.4-1.4,6.1
		c-1.8-13.5-2.3-27.3-6-40.5C917.9,343.2,917.3,341.5,918.7,340.9z"/>
	<path class="st18" d="M926.2,378.5c0.1-2.5,0.2-5,0.3-7.5c0.4,0,0.9,0,1.3,0c0,14.9,0.1,29.9,0,44.8c0,3,1,6.2-1.2,8.8
		c-0.8-0.5-1.4-1.1-1.8-2c-2-6.6-2.3-13.2-0.6-19.9c1.3-5.3,0.3-10.8,0.7-16.1C924.9,383.9,924.1,380.9,926.2,378.5z"/>
	<path class="st19" d="M926.2,378.5c-0.7,8.2,1.5,16.6-1.3,24.7c-1-0.2-1.1-1.2-1.7-1.8c0-5.6-0.1-11.2-0.1-16.7
		c1.1-6.7-1.4-13.6,1.4-20.2C925.5,369.1,923.9,374,926.2,378.5z"/>
	<path class="st20" d="M924.5,427.9c-5,3.8-4.9,10.1-7.6,15.1c-1.3,0.5-2.1,0.3-1.5-1.4c2-9.3,4-18.7,6.1-28c3,2.6,1.8,6.8,3.9,9.8
		C925.3,425,926.1,426.7,924.5,427.9z"/>
	<path class="st21" d="M663.3,461.7c-6.8,3.3-14,1-21,1.5c-4.8,0.4-9.6,0.1-14.5,0.1c0-2.2,1.4-3.7,2.7-3.4
		c9.7,2.2,19.3,4.5,28.8-1.1C659.9,458.5,661.9,460.7,663.3,461.7C663.3,461.7,663.3,461.7,663.3,461.7z"/>
	<path class="st22" d="M646.5,314.9c1.7-6.9,5.2-12.8,9.1-18.6c0.5-0.5,1.1-0.6,1.6,0c-2,7.8-5.5,14.9-9.3,21.9
		C646.5,317.5,647,316,646.5,314.9z"/>
	<path class="st23" d="M646.5,314.9c0.5,1.1,0.9,2.2,1.4,3.3c-2.8,6.1-2.7,13.4-7.8,18.5c-0.9-0.2-1-1.1-1.5-1.8
		C641.3,328.2,643.9,321.6,646.5,314.9z"/>
	<path class="st24" d="M924.7,423.1c-5.5-1.6-1.9-6.4-3.2-9.4c0,0,0.1,0.1,0.1,0.1c2.1-3.4-0.3-7.5,1.5-11c-0.1-0.5-0.1-0.9,0.1-1.4
		c0.6,0.6,1.2,1.2,1.7,1.8c-0.8,6.7,1,13.3,1.1,20C925.5,423.9,925.1,423.8,924.7,423.1z"/>
	<path class="st25" d="M626.1,379.8c0.2-6,2.1-11.7,4.1-17.3c3.5-0.1,2.7,2.2,2.3,4.2c-2.8,4.6-0.9,10.7-4.7,15
		C627.3,381,626.7,380.4,626.1,379.8z"/>
	<path class="st26" d="M638.7,334.9c0.5,0.6,1,1.2,1.5,1.8c-2,5.6,0.2,12.5-5.6,16.8C633,346.7,636.8,341,638.7,334.9z"/>
	<path class="st27" d="M677.5,464.6c-1.2,0-2.5,0-3.7,0.1c-4.8-2.4-7.8-6.1-8.3-11.6c0.3-0.7,0.7-1.2,1.3-1.7c0.3-0.1,0.7-0.2,1-0.3
		c4.1,3.3,5.1,9,9.4,12.1c0,0,0.1,0.1,0.1,0.1c0.3,0.3,0.5,0.6,0.4,0.9C677.7,464.4,677.6,464.6,677.5,464.6z"/>
	<path class="st28" d="M788.7,427.6c3.1,3.6,4.5,7.9,5.8,13.7c-4.6-3-6.9-6.2-7.5-10.6C788.2,430,787.3,428.2,788.7,427.6z"/>
	<path class="st29" d="M943.9,271.2c-0.7,0.1-1.5,0.2-2.2,0.3c-2.9-3.1-4.5-7-6-10.9c0.6-0.7,1.3-0.9,2.1-0.3
		C941.7,262.8,943.8,266.4,943.9,271.2z"/>
	<path class="st30" d="M972.9,430.1c0-1.3-0.1-2.7-0.1-4c0-7.2,0-14.4,0-21.7c3.3,7.9,0.8,16.3,2,24.4c-0.3,0.8-0.5,1.7-0.8,2.5
		C973.4,431.1,973.1,430.7,972.9,430.1z"/>
	<path class="st31" d="M667.8,242.3c-1.2-5.6,3.7-7.6,6.3-11c0.2,1.3,0,2.8,1.7,3.3c0.4,1.6-0.3,2.7-1.3,3.7
		C672.5,240,671.3,243.1,667.8,242.3z"/>
	<path class="st32" d="M937.7,260.3c-0.7,0.1-1.4,0.2-2.1,0.3c-0.5-0.1-1-0.2-1.5-0.3c-1.5-3.1-3-6.2-4.4-9.3
		C934.1,252.7,937.2,255.5,937.7,260.3z"/>
	<path class="st33" d="M777.8,369.1c-0.9,7.1,1.6,14.3-1.4,21.3C776.6,383.3,774,376,777.8,369.1z"/>
	<path class="st34" d="M667.8,242.3c2.1-1.6,4.2-3.3,6.2-4.9c1.5-0.3,2.2,0.3,1.8,1.9c-2.1,2.1-4.1,4.2-6.2,6.2
		C669.1,244.4,668.4,243.4,667.8,242.3z"/>
	<path class="st35" d="M915.4,441.6c0.5,0.5,1,0.9,1.5,1.4c1.6,2.6,0.5,4.3-1.9,5.5c-0.5,0.3-1.8,0-1.9-0.3
		C911.9,445.4,913.7,443.5,915.4,441.6z"/>
	<path class="st36" d="M657.1,291.6c0.5-1.5,1.1-3,1.6-4.5c6.4,2.4,1.1,5.2,0.2,7.8C657.2,294.3,658,292.5,657.1,291.6z"/>
	<path class="st37" d="M632.5,366.7c-0.2-1.7-0.6-3.3-2.3-4.2c0.4-2.6,0.1-5.6,3.7-6.2C634.5,359.8,634.5,363.4,632.5,366.7z"/>
	<path class="st38" d="M675.9,239.2c-0.6-0.6-1.2-1.2-1.8-1.9c0.6-0.9,1.2-1.9,1.8-2.8c1.2-0.9,2.3-1.7,4.1-3
		C680.2,235.6,677.7,237.2,675.9,239.2z"/>
	<path class="st9" d="M663,459c0.5-1.1,1-2.3,1.4-3.4c3.2,2.3,4.7,5.2,3.5,9.2c-1.1,0-2.2,0-3.3,0c-0.2-1.1,0-2.5-1.4-3.1
		c0,0,0,0,0,0C663.2,460.8,663.1,459.9,663,459z"/>
	<path class="st39" d="M788.7,427.6c-0.2,1.2-0.2,2.5-1.6,3.1c-1.1-3.1-2.1-6.1-3.2-9.2c0.6-0.9,1.2-0.9,1.9-0.1
		C786.8,423.5,787.8,425.6,788.7,427.6z"/>
	<path class="st40" d="M785.8,421.5c-0.6,0-1.3,0.1-1.9,0.1c-0.5-1.5-1.1-3-1.6-4.5c0.3-1.6-0.4-3.4,1.4-4.6
		C784.4,415.5,785.1,418.5,785.8,421.5z"/>
	<path class="st41" d="M926.6,427.5c1.7,2.3,1.3,4.9,0.9,7.4c-0.2,1-1.1,1.9-2.2,0.8c-0.4-0.5-0.3-1.4-0.4-2.1
		C926.5,431.8,924.3,429.1,926.6,427.5z"/>
	<path class="st42" d="M926.6,427.5c-0.7,2,0.1,4.4-1.7,6c-0.2-1.9-0.3-3.8-0.5-5.6c0.1-1.6,0.1-3.2,0.2-4.8c0.4,0,0.9,0,1.3,0.1
		c0.2,0.5,0.4,1,0.6,1.5C926.6,425.6,926.6,426.6,926.6,427.5z"/>
	<path class="st19" d="M923.1,402.8c-0.2,3.7,1.5,7.7-1.5,11C922,410.1,920.9,406.2,923.1,402.8z"/>
	<path class="st43" d="M918.7,340.9c-0.5,1.1-1.1,2.2-1.6,3.2c-0.4-1.7-2.7-3.6,0.1-5C918.4,338.5,918.5,340,918.7,340.9z"/>
	<path class="st44" d="M664.4,447c0.5-0.7,1-1.4,1.5-2.1c0.6,2,1.3,4.1,1.9,6.1c0,0,0.1-0.1,0.1-0.1
		C663.3,452.7,664.1,449.5,664.4,447z"/>
	<path class="st45" d="M657.1,291.6c1.6,0.6,1.6,2,1.8,3.3c-0.5,0.4-1.1,0.9-1.6,1.3c-0.5,0-1.1,0-1.6,0
		C656.1,294.7,656.6,293.1,657.1,291.6z"/>
	<path class="st46" d="M395.5,229.7c-2.1,19.6-5,39.1-10.7,58.1c-5,16.9-12.8,32.3-24.1,45.9c-2,2.4-4.5,4.1-7,5.8
		c-3.4,1.1-6.8,2.2-10.3,2.8c-6.8-0.5-13.7-1.6-20.5,0c-6.5,1.7-12.9,0.6-19-1.2c-36.7-10.7-59.6-35.8-73.1-70.6
		c-1.1-2-1.9-0.6-2.7,0.2c-1.8,1.8-3.6,2.7-5.9,0.7c0.1-5.4-0.8-8.5-7.8-9.5c-9.2-1.3-16.1-7.6-19.5-16.9c-6.2-17-6.2-34.3-2.4-51.6
		c0.9-4.2,3.1-9.6,7.8-9.4c5.5,0.3,9.8,4.5,11.1,10.2c1.6,7.3,2.6,14.7,4,22c1.2,6.6,2.9,13.1,5.3,19.3c2.2,2.7,5.3,2.5,8.4,2.7
		c6.5,0.4,13.2-1.3,19.6,1.1c2.1,0.8,3.7-0.1,3.6-2.4c-0.1-2.9,1.1-6.1-0.9-8.8c-4.4-23.3-6.1-47-9.2-70.4c-0.9-6.6-4.2-14-2.4-19.7
		c2.4-7.5-1.9-5.4-5.1-6c-1.1-1.7,0.7-2.1,1.3-3c0.5-0.2,0.9-0.2,1.4,0c8.8-1.4,8.7-1.4,8.8-10.5c0-3.5-0.6-7.1,0.6-11
		c3.8,0.7,3.6,3.7,3.8,6.3c0.3,3.2-0.7,6.7,2,9.4c7.5,3.8,15.6,2.3,23.3,1.7c13.9-1,28.2,0,41.5-5.4c2.3,1.6,2.7-1.2,4.1-1.9
		c8.8-0.1,8.8-0.1,11.4-5.6c2.4,0.9,2.4,3.1,2.7,5c1.7,11,1.7,11,12.5,12.1c7.4,1.2,14.7,1.3,22.1,0c0.6-0.4,1.3-0.8,1.9-1.1
		c7.1-1.1,10-5.1,9.1-12.3c-0.4-3.5,0.5-7.2-0.6-10.7c-0.4-4.3,1.7-5.2,5.4-3.8c0.4,0.2,0.5,0.6,0.3,1c1.4,2.6-0.3,5.6,1.3,8.2
		c0,0.5,0,1.1,0,1.6c-1.2,1.6-1.4,4-0.5,5.1c8.4,10.7,4.2,23.4,5.9,35.2c0.3,1.8,0.1,3.6,0.4,5.4c0.6,3.3-0.8,5.5-3.9,6.6
		c-0.8,0.1-1.6,0.4-2.3,0.2c-17-6.2-33.5-4.3-49.6,3.4c-1.2,0.1-2.4,0-3.6-0.3c-3.6-1.8-7.6-0.7-11.4-1.2
		c-20.9-6.8-41.6-3.1-62.3,0.8c-3.6,0.7-7.5,2.4-7.4,6.6c0.1,4.1,4.3,4.8,7.5,5.4c21.9,3.6,43.4,1.9,64.5-5.2c3.3-1,6.2-1.3,7.3,3
		c0.2,0.9,0.3,1.8,0.3,2.7c-0.1,6.3,0.4,12.6-0.4,18.9c-2.1,7.2-0.7,14.6-1.1,21.9c-0.2,3.8,0.3,7.7-1.9,11.1
		c-0.5,0.7-1.1,1.2-1.8,1.6c-2.7,0.3-4.9-1.9-7.6-1.7c-0.8,0.2-3.5-0.6-1.5,1.5c3.1,3.3,6.6,6.4,10.2,9.3c3.9,3.2,7.9,4.2,12.3,0.2
		c2.1-2,4.8-4.1,8.2-2.2c1.9,3.8,1,8.1,2.5,11.9c0.3,0.6,0.6,1.1,0.6,1.7c0.1-1.1-0.6-1.9-1-2.8c-0.3-1-0.3-2-0.4-3.1
		c-0.1-2.8-0.6-5.6-1.9-8.1c1.3-4.8-1.2-5.5-5.2-5.2c-3.7,0.3-7.9,1.2-8.8-4.4c-0.5-11.6-0.1-23.1-0.2-34.7
		c-0.1-5.6,0.2-11.2-1-16.9c-0.9-4.2,0.3-7.9,6-7c13.7,5.7,27.8,5.2,42.1,3c2.7-0.4,5.5-1.5,8.3,0.1c5.2,4.8,3.6,11.2,2.9,16.7
		c-1,8.8-1.2,17.6-1.2,25.1c0.5-5-0.6-11.6,0.5-18c4.2-0.2,3.2,3.1,3.3,5.3c0.4,6.3-0.4,12.6,0.5,18.9
		C396.3,225.2,396.8,227.5,395.5,229.7z"/>
	<path class="st3" d="M285.8,460.2c0.6,6.2-4,4.7-7.3,4.7c-36.5,0.1-73,0-109.5,0c-23.6,0-47.2,0-70.7,0c-0.7-3,2.1-3.9,2.2-6
		c11.8-10.3,23.5-20.7,35.5-30.8c14.5-12.3,28.7-25,45.3-34.7c4.6-2.7,6.2,0.1,8.1,2.5c5.9,7.5,12.8,14.2,19.5,20.9
		c7.3,7.2,16.3,11.5,25.8,15.1c5.2,2,6.7-0.2,7.3-4.3c2.7-20.7,9.5-40.6,13.2-61.1c0.2-0.9,0.8-1.7,2-4.3
		C266.8,395.9,273.2,429,285.8,460.2z"/>
	<path class="st47" d="M222.2,271.4c3.2,0.5,4-1.8,5.5-4c2.1-2.9,4.6-3.4,5.1,1.4c-3.4,3.4-0.9,6.9,0.4,10
		c13.2,30.6,34.5,52.6,67.1,62.4c11.4,3.4,11.3,3.4,11.7,15c0.4,11.3,3.2,22.2,6.1,33.1c2.5,11.9,11.1,19,20.5,24.9
		c5.7,3.6,6.6,7.9,5.7,13.7c-0.9,5.6-1.3,10.4-8.7,12.4c-17.1,4.7-33.1,2-48.9-4.7c-3.7-1.5-4.4-4.8-5.2-8
		c-6.9-25.3-13.8-50.7-20.4-76.1c-0.8-3.2-2.1-5.3-5-7.1c-9.2-5.6-18.5-11.2-28.4-15.6c-2.7-1.2-4.2-2.6-4-5.7
		C224.6,305.9,222.4,288.7,222.2,271.4z"/>
	<path class="st3" d="M248.3,346c5.6,1.2,5.7,5,4.3,9.4c-6.8,21.9-11.2,44.4-16.4,66.6c-1.3,5.4-3.5,4.6-7,2.6
		c-11.2-6.7-19.9-16.2-28.5-25.8c-1-1.2-1.7-2.7-2.9-3.6c-13.3-9.7-14.5-22-9.3-36.6c2.8-7.9,3.7-16.5,5.7-24.8
		c2-8.4,4.4-9.7,12.6-7.3c11.4,3.4,21.4,10,32.2,14.7C241.9,343.3,245.4,344.1,248.3,346z"/>
	<path class="st3" d="M352.2,407.6c-1,7.4-3.7,7.8-9.9,3.6c-10.5-7.1-16.2-17.3-20.9-28.4c-3.5-10-4.5-20.4-5.6-30.8
		c-0.5-5,2-6.9,6.5-7.5c6.9-1,13.7,0.1,20.5,0.4c1.2,0.1,2.4,0.6,3.8,0.5c14.1-0.5,14.5-0.5,13.9,13.1c-0.6,13.5-2,27-4.7,40.3
		c-0.1,0.8-0.3,1.6-0.5,2.4C354.5,403.4,354.2,405.9,352.2,407.6z"/>
	<path class="st48" d="M352.2,407.6c0-2.2-0.2-4.5,1.5-6.3l0,0.1c1.9-12.2,3.8-24.4,5.7-36.6c2.7-17.2,1.8-18.2-15.1-18
		c-6.9,0.1-13.8,0.2-20.7-0.3c-6.6-0.4-7.2,2.8-6.3,8.1c1.6,9.4,2.8,18.8,4.2,28.2c-5.5-7.3-4.7-16.3-6.3-24.6
		c-0.7-3.9-0.1-8.1-0.7-12.1c-2.2,11.9-0.4,23.5,2.4,35c0.7,2.8,1.6,5.4,1.1,8.3c-5.2-11.7-7-24.1-7.2-36.7c-0.1-4.9-1.2-7-6.3-8.2
		c-36.5-8.6-59.6-32.5-73.9-66c-2.9-6.7-2.1-8.2,2.3-9.5c0.9,9.4,6.6,16.7,11.5,24c18.7,27.9,43,47.3,78.4,48.5
		c6.7-0.6,13.5-0.3,20.2-0.2c3.6-0.6,7.2-1.2,10.8-1.7c-1.9,2.5-5.5,2-8.5,4.5c1.8,0,2.8,0.1,3.8,0c11.1-1.7,12.3-0.6,12.5,10.1
		c0.2,8.5-0.3,16.9-1.1,25.5c0.9-1.5,1.8-2.9,2.6-4.4c4.3,6.1,0.6,12.3-0.1,18.4c-1.1,8.9-1.5,8.9,7.3,8.7c3.4,0,6.6,0.2,9.6,1.9
		c-6,3.6-13.2,1.7-20.2,4.5c4.7,0.9,8.5,0.1,12.6-0.5c4.6-0.7,10.6-2.9,12.4,4.7c-8.1-3.9-16.6-1.2-24.9-1.7c-3-0.2-3.6,2.4-4.1,4.6
		c-0.7,3.2-1.3,6.5-3.2,9.3C350.6,419.2,356.5,413.4,352.2,407.6z"/>
	<path class="st49" d="M337.3,166.5c16.8-9.9,34.1-10.8,52-3.4c2.6,1.3,4.3-0.9,6.3-1.6c0.5,1.1,1.4,2.3,1.4,3.4
		c0.1,20.4,0.1,40.8,0,61.3c0,1.1-1,2.3-1.5,3.4c-0.1-2.1-0.2-4.2-0.3-6.2c-0.3-12.7-1.2-25.3-1.9-38c-0.2-2.7,0.7-5.6-1.1-8.2
		c-0.9-0.6-1.9-1-2.8-1.5c-16.7,3.1-33.5,6.7-49.8-1.7C337.7,171.9,333.4,170.5,337.3,166.5z"/>
	<path class="st50" d="M372.5,129.3c-0.1,0.4-0.1,0.8-0.2,1.3c-8.2,1.4-16.4,1-24.6,0.1c-13.3-0.2-13.3-0.2-14.4-17
		c-2.4,1.6-0.2,4.4-2.2,6.4c-2.9-1.7-6.3-2.2-9.8-1.9c-1-0.9-1.6-2.1-1.3-3.3c0.7-2.3-1.2-0.6-1.7-1.2c-0.8-0.6-1.7-1.4-1.7-2.4
		c0.7-9.7-5.1-15.2-12.7-19.4c-6.2-2.1-12.4-1.4-18.6,0.3c-6.5,2.2-13.3,2.7-19.9,4.5c-2.4,0.3-4.9,0.5-6.7,2.5
		c-1.7,1.4-3.3,2.8-5.3,3.8c-1.8,0.7-3.6,1.3-5.3-0.4c2.8-6.7,9.1-9.2,14.9-11.7c12.8-5.4,26.5-6.6,40.2-5.5
		c15,1.2,22.1,10.4,20.4,25.1c-0.3,2.6-2.1,5.8,2.7,6.3c4.3,0.5,4.5-2,4.5-5.2c0-0.9,0.6-1.9,0.9-2.9c2.7,0.2,1.1-7.8,6.1-3.3
		c1.2,3,0.5,6.1,0.1,9.1c-0.9,7.9,2,11.1,10.3,11.9c7.4,0.7,14.9-0.8,22.3,1.1C371.5,128,372.1,128.6,372.5,129.3z"/>
	<path class="st51" d="M379.8,404.1c-5.8,0.5-11.7,0.8-17.5,1.5c-4.5,0.5-3.5-2-3-4.7c1.5-8.5,4-16.9,3.9-25.7
		c1.8-5,1.5-10.4,2.7-15.7C374.5,373.1,376.5,388.8,379.8,404.1z"/>
	<path class="st52" d="M386.1,101.3c-1,1.6-4.7-0.6-4.3,2.9c-0.4,0.1-0.8,0.3-1.1,0.4c-12.1-7.1-25.4-6-38.7-5.3
		c-1.7-0.4-3.1-1.2-3.9-2.8C350.2,85.6,378.6,88.5,386.1,101.3z"/>
	<path class="st52" d="M395.6,161.6c-0.7,1.5,1,4.1-1.3,4.5c-1.9,0.3-3.7-1.3-5-2.9c6.3-5.6,2.9-13,2.7-19.3c-0.2-5-1-10-1.1-15.1
		c-0.1-3.4,0.6-6.6-4.2-8.6c-2.7-1.2-0.7-5.4,1.1-8.1c5.5,10,5.9,20.9,6.5,31.9C394.6,149.9,393.9,155.8,395.6,161.6z"/>
	<path class="st53" d="M248.2,102.7c1.8-0.4,3.6-0.8,5.4-1.2c-0.7,8.2-0.3,16.5-3.2,24.3c-4.5-5-0.2-11.4-3.4-18.5
		c0,5.3-0.3,8.9,0.1,12.4c0.9,7.5-2.1,10.7-9.7,9.3c7-1.3,9-5.6,8.2-12.4C245.1,111.9,244.5,106.7,248.2,102.7z"/>
	<path class="st54" d="M251.5,228.1c3,3.3,2.6,7.5,1.1,10.7c-1.8,3.7-5.4,0.4-8.2,0.4c-5.6-0.1-11.2-0.1-16.8-0.1
		c-2.8,0-5.7,0.1-6.8-3.4c9.3,3.8,19.3,0.2,28.8,3.1c2.2,0.7,2.7-1.9,2.6-3.7C252,232.6,251.7,230.4,251.5,228.1z"/>
	<path class="st46" d="M338,96.5c1.3,0.2,2.6,0.3,3.3,1.6c-0.1,3.1-0.7,5.8-4.5,6.3c-2.9,0.1,0.1,6.9-5,4.5
		C331.7,103.6,333.1,99.2,338,96.5z"/>
	<path class="st55" d="M229.9,84.2c3.3-4.1,7.8-5.8,12.7-7.1c-3.3,3.5-6.6,6.9-11.2,8.6C230.7,85.4,230.2,84.9,229.9,84.2z"/>
	<path class="st56" d="M398,148.6c3.3-4.8,7-5.1,10-6.5C406.1,145.6,403.5,148,398,148.6z"/>
	<path class="st57" d="M229.9,84.2c0.5,0.5,1,1,1.5,1.5c-2.5,0.9-3.4,4.4-7.3,3.9C224.7,86.1,226.8,84.6,229.9,84.2z"/>
	<path class="st58" d="M248.3,346c-3.6-0.5-7-1.5-9.2-4.8C242.8,341.8,246.1,342.9,248.3,346z"/>
	<path class="st59" d="M236.1,129c-0.4,1-0.9,2-1.3,3c-1.7,0.5-3.4,0.5-5.2-0.4C231.3,129.4,233.4,128.5,236.1,129z"/>
	<path class="st60" d="M222.3,149.5c0.5,0.9,1.2,1.4,1.2,2c0,1.1-0.6,1.9-1.8,1.6c-0.4-0.1-0.8-1.2-0.8-1.8
		C221,150.7,221.7,150.2,222.3,149.5z"/>
	<path class="st61" d="M217.7,95.1c-1,1.2-2,3.7-3.7,2c-1.7-1.7,0.8-2.7,2-3.6C217,93.6,217.5,94.2,217.7,95.1z"/>
	<path class="st62" d="M217.7,95.1c-0.5-0.6-1.1-1.1-1.6-1.7c1.3-1.5,3.5-2.5,4.6-1C221.4,93.7,218.8,94.3,217.7,95.1z"/>
	<path class="st52" d="M387.7,110.5c-2.4-2.4-1.3-5.4-1.3-8.2C388.4,104.8,388.3,107.6,387.7,110.5z"/>
	<path class="st63" d="M432.1,463.1c-28,0-55.9,0-83.9,0c0-0.3,0-0.5,0-0.8c28.1,0,56.1,0,84.2,0
		C432.3,462.6,432.2,462.8,432.1,463.1z"/>
	<path class="st30" d="M975.9,418.4c0-6.2,0-12.5,0.1-18.7c2,6.1,1.4,12.4,1.2,18.7C976.8,418.4,976.3,418.4,975.9,418.4z"/>
	<path class="st30" d="M976,399.8c-3.2-5.5-1.6-11.5-1.5-17.3C976.2,388.1,976.5,393.9,976,399.8z"/>
	<path class="st4" d="M972.9,430.1c0.3,0.4,0.7,0.8,1,1.2c0.1,9-0.1,18,0.4,27c0.3,4.9-0.8,6.8-6.2,6.8
		c-95.1-0.1-190.2-0.1-285.3-0.2c-1.8,0-3.6-0.3-5.4-0.5c0-0.4-0.1-0.9-0.1-1.3c95.8,0,191.7,0,287.5,0.2c6,0,8.3-1.5,7.9-7.8
		C972.4,447.2,972.8,438.6,972.9,430.1z"/>
	<path class="st64" d="M668,464.8c-1.2-3.1-2.3-6.1-3.5-9.2c0.1-0.5,0.1-0.9,0.1-1.4c-0.5-1.7,0.4-2.1,1.8-1.8
		c0.8,5.1,4.9,8.1,7.4,12.1C671.9,465.6,669.9,465.3,668,464.8z"/>
	<path class="st0" d="M651.8,277.6c3.5,3.5,4.4,7.3,2,11.5C653.1,285.3,652.5,281.5,651.8,277.6z"/>
	<path class="st65" d="M954.2,291.6c-2.4-1.9-3.2-4.4-3.2-7.3C953.4,286.1,954.3,288.6,954.2,291.6z"/>
	<path class="st0" d="M919.6,255.2c-1.6-2.9-1-4.9-0.6-7.7C920.6,250.3,920,252.3,919.6,255.2z"/>
	<path class="st66" d="M666.4,452.5c-0.6,0.6-1.2,1.2-1.8,1.8c-1.3-2.4-2.4-4.8-0.1-7.3c0.1,2.3,1,3.8,3.5,3.9
		C667.4,451.4,666.9,451.9,666.4,452.5z"/>
	<path class="st67" d="M250.5,125.8c0.5-8.2-2.2-16.8,3.2-24.3c1.4-1.2,2.8-2.4,4.2-3.5c2-1.3,4.2-2,6.4-2.8
		c6.9-2.6,14.2-3.3,21.4-4.7c6.1-1.4,12.1-1.5,18.2,0.1c9.2,3.1,15.6,8.2,14.3,19.2c-0.2,1.4,0.8,2.9,1.2,4.3
		c1.6,1.8,1.5,3.6,0.1,5.4c-3.6,5.5-9.7,5.6-15.1,6c-15.8,1.1-31.6,1.6-47.4,2.1C254.9,127.6,252.7,126.4,250.5,125.8z"/>
	<path class="st68" d="M326,175.6c-22.4,9-45.4,9.6-68.8,5.4c-3.6-0.7-8-2.3-7.6-7.2c0.3-4.6,3.9-7.8,7.8-8.5
		c22.3-3.8,44.6-8.6,67-0.6c0.8,0.7,1.8,0.8,2.8,0.8c3,0,6.9-0.5,5.8,4.2c-1,4.4-4.4,4.1-7.7,2.2c-6.3-1-12.3-3.4-18.7-3.4
		c-1.8,0-4.6-1.1-4.6,2.2c0,2.9,2.2,3.6,4.9,3.4c5.1-0.5,10-2.1,15.1-2C323.8,172.5,326.2,172.6,326,175.6z"/>
	<path class="st69" d="M336.6,233c2.7,0,5.5-0.3,8.2-0.1c2.6,0.2,6-2,7.8,0.9c2.2,3.4-3.3,3.9-3.5,6.7l0.1-0.1
		c-2-0.3-3.4,0.8-4.9,1.9c-9.4,7.1-10.8,7.1-19.7-0.4c-2.8-2.3-5.4-4.8-7.9-7.4c-1.3-1.3-4.5-2-3-4.5c1.3-2.3,3.7-0.5,5.7-0.2
		c2,1.2,5,0.1,6.5,2.6c0.5,0.2,1,0.3,1.6,0.5c0.8-0.7,1.8-1.2,2.4-2.1c0.5-17.4,2.3-34.7,0.9-52.1c0-0.5,0-1.1,0-1.6
		c1.2-1.3-0.6-4.3,2.4-4.7c1-0.1,1,0.9,1.2,1.5C337.7,193.4,334.6,213.3,336.6,233z"/>
	<path class="st70" d="M245.4,243.3c2.5,1,4.9,2,7.4,3c-0.1,0.7-0.2,1.4-0.3,2c-8.8,2.4-17.7,2.1-26.4-0.8c-4-1.4-1.6-3.9,0.8-5.5
		c3.3-1.4,6.7-0.4,10-0.7C239.6,242.6,242.6,242.7,245.4,243.3z"/>
	<path class="st71" d="M336.6,233c-2.5-3.8-1.1-8-1.2-11.9c-0.4-16.2,0.1-32.4-1.9-48.6c-1-2.1-1-4.2,0.1-6.2
		c1.2,0.1,2.4,0.2,3.6,0.3c-1,3.1,0.9,5.2,2.3,7.5c-4.3-1.5-4.5,0.9-4.1,4.2C338,196.5,336.6,214.7,336.6,233z"/>
	<path class="st72" d="M341.3,298.2c-8.2,4-16.6,3.1-24.9,1.6c-1-0.2-1.7-1.3-1.2-2.4c0.3-0.6,1.1-1.3,1.6-1.2
		C325,296.4,333.3,295.4,341.3,298.2z"/>
	<path class="st73" d="M392.3,175.1c3.6-3.5,3.5-0.4,3.5,2c0.1,15.4,0.6,30.9-0.5,46.3c-2.6-5.1-0.7-10.6-1.3-15.9
		c-0.3-3,1.1-6.2-1.5-8.8C391.2,190.8,391.5,182.9,392.3,175.1z"/>
	<path class="st74" d="M330.7,178.6c2.6,3.8,1.2,8,1.3,12c0.2,13.1,0.2,26.3,0,39.4c0,1.7,2,5.8-3.1,4.4c2-11.8-0.2-23.9,1.4-35.7
		C330.5,192,330.6,185.3,330.7,178.6z"/>
	<path class="st75" d="M392.3,175.1c0.1,7.9,0.1,15.7,0.2,23.6c0,7.6,0,15.2,0,22.9c-0.5,0-1,0-1.5,0c0-12,0-24.1,0-36.1
		c0-3.3,0.5-6.7-1.5-9.7C390.4,175.5,391.3,175.3,392.3,175.1z"/>
	<path class="st76" d="M343,341.1c-6.7,1.9-13.5,1.4-20.2,0.2c0.4-0.9,1.1-2.5,1.3-2.4C330.2,340.7,337,337.6,343,341.1z"/>
	<path class="st74" d="M333.7,166.2c0,2.1-0.1,4.2-0.1,6.2c-0.9,1.5-1.8,3-2.7,4.6c-0.5-4.3-3.1-1.1-4.8-1.4c-1.2-1.9-3.3-1.4-5-1.9
		c0-3,2.9-2.8,4.5-4.2c1.9-0.1,2.8,3.6,5.2,1.6c0.7-0.6,1.3-1.8,1.2-2.6c-0.4-3-3.1-1.8-4.8-2.4c-0.9-0.3-1.7-1-2.6-1.4
		C327.2,166.7,331.4,160.7,333.7,166.2z"/>
	<path class="st77" d="M330.4,198.7c0.2,10.2,0.4,20.3,0.5,30.5c0,1.9,0.6,4.2-1.9,5.2c-0.5-0.5-1-1.1-1.5-1.6
		c2.7-8.3,1.1-16.8,1.6-25.2C329.2,204.6,328,201.4,330.4,198.7z"/>
	<path class="st52" d="M381.8,104.2c4,6.5,1.5,13.5,0.8,20.1c-0.5,4.6-6,4.7-10.1,5.1c0,0-0.4-0.6-0.4-0.6
		c6.5-5.3,8.1-12.4,7.5-20.3c-0.1-1.5,0.5-3,1.8-4.1L381.8,104.2z"/>
	<path class="st78" d="M347.7,130.8c8.2,0,16.4-0.1,24.6-0.1C364.1,133.1,355.9,132.9,347.7,130.8z"/>
	<path class="st79" d="M350.5,253.1c-1.5-4.1-3.6-8.2-1.2-12.7c0,0-0.1,0.1-0.1,0.1c3.3,1.7,3.1,4.8,3,7.9
		C350.7,249.6,352.3,252,350.5,253.1z"/>
	<path class="st80" d="M302.6,245.1c0.3-3.7,2.3-6.6,4.5-9.4c1.7-0.2,2.8,0.2,2.1,2.2c0.2,3.1-3.5,4.2-3.7,7.1
		C304.5,246,303.6,246.1,302.6,245.1z"/>
	<path class="st81" d="M352.5,251.1c1.5,1.7,1.3,3.8,1.2,5.8c-0.1,1.4,0.3,3.6-2,3c-1.5-0.4-1.2-2.5-0.9-4.1
		C352.2,254.6,350.5,252.2,352.5,251.1z"/>
	<path class="st82" d="M237.3,242.2c-3.5-0.1-7-0.2-10.4-0.3c4.5-2.5,9.2-2,13.8-0.3C239.8,243.2,238.6,242.8,237.3,242.2z"/>
	<path class="st83" d="M319.5,119.5c0-1.8-0.1-3.6-0.1-5.4c3.7,0,1,2.9,1.9,4.2C320.9,119,321.7,121.4,319.5,119.5z"/>
	<path class="st84" d="M352.5,251.1c-0.7,1.5,0,3.6-1.7,4.7c-0.1-0.9-0.2-1.8-0.3-2.7c0.7-1.6-0.2-3.6,1.6-4.8
		C352.2,249.2,352.4,250.2,352.5,251.1z"/>
	<path class="st85" d="M302.6,245.1c1,0,1.9,0,2.9-0.1c-0.3,1.8-1.2,3.5-3.2,2.8C300.8,247.4,301.6,246,302.6,245.1z"/>
	<path class="st54" d="M237.3,242.2c1.1-0.2,2.2-0.4,3.4-0.6c1.6,0.4,3.5,0.1,4.7,1.7C242.7,242.9,240,242.6,237.3,242.2z"/>
	<path class="st86" d="M309.2,237.9c-0.7-0.7-1.4-1.5-2.1-2.2c0.9-1.4,2-4,3.6-2.7C312.7,234.5,310.1,236.3,309.2,237.9z"/>
	<path class="st77" d="M325.9,232.4c-2.3-0.6-4.7-0.7-6.5-2.6C321.8,230,324.9,228.5,325.9,232.4z"/>
	<path class="st63" d="M275.8,463.1c-53.7,0-107.5,0-161.2,0c0-0.3,0-0.5,0-0.8c53.8,0,107.7,0,161.5,0
		C276,462.6,275.9,462.8,275.8,463.1z"/>
	<path class="st1" d="M353.6,401.4c1.3-0.2,3.1-1.4,3,1.2c0,0.8-1.1,2.2-1.5,2.1C352.9,404.5,354.2,402.4,353.6,401.4
		C353.7,401.3,353.6,401.4,353.6,401.4z"/>
	<path class="st1" d="M357.8,395.7c-1.2-2-1-3.4-0.5-4.8C359.2,392,358.4,393.5,357.8,395.7z"/>
	<path class="st87" d="M343.4,168.5c6.6-3.8,13.4-3.8,20.2-4.2c3.4-0.2,3.6,2,3.4,4.5c-0.1,2.4,0.9,5.6-3.2,5.4
		C356.7,173.9,349.5,173.9,343.4,168.5z"/>
	<path class="st88" d="M377.3,173.5c-5.3,0.8-4.6-2.6-5-5.3c-0.4-3.1,0.8-4.3,3.8-3.8c4.4,0.8,11.8,0.9,11.8,4.7
		C388,174,380.4,171.6,377.3,173.5z"/>
	<path class="st89" d="M381.5,104.4c0.2,3,0.2,6.1,0.7,9.1c1.3,8.2-1.4,13.7-10,15.3c-7.7,0.1-15.4,0.5-23.1,0.3
		c-11.4-0.4-14.1-3.7-13.1-14.7c0.3-3.3,0.6-6.6,0.9-10c1.5-2.1,3-4.2,4.5-6.3c10.8-2.5,21.6-2.7,32.2,0.6
		C376.6,99.7,379.4,101.7,381.5,104.4z"/>
	<path class="st90" d="M303.9,90.6c-6.1,0-12.1-0.1-18.2-0.1c6.3-3.8,13.6-0.3,20.2-2.4c0.6-0.2,0.9,1.1,0.2,1.6
		C305.4,90.2,304.6,90.3,303.9,90.6z"/>
	<path class="st53" d="M264.3,95.2c-1.9,1.5-3.9,2.8-6.4,2.8C259.2,95.3,261.5,94.7,264.3,95.2z"/>
	<path class="st91" d="M277.7,177.2c-6.2,0-12.4,0.4-18.4-1.4c-1.1-0.3-2.7-0.4-2.8-2c-0.1-1.6,1.3-2.1,2.4-2.6
		c10.5-4,21.5-5.2,32.6-4.8c4.6,0.2,2.3,4.3,2.9,6.6c0.7,2.8-0.5,4.3-3.6,4.3C286.4,177.1,282,177.2,277.7,177.2z"/>
	<path class="st92" d="M325.4,169.6c-0.1,2.9-3.1,2.7-4.5,4.2c-5.3,0.9-10.5,1.8-15.7,2.9c-4,0.8-5.8-0.2-6.2-4.8
		c-0.4-4.8,0.7-5.9,5.5-5.8C311.7,166.1,318.3,169.2,325.4,169.6z"/>
	<path class="st93" d="M338.3,242.1c-4.9,3.8-7.3-0.5-10.4-2.9c2.5-0.6,4.3,2,6.8,1.2C336.2,240.5,337.6,240.6,338.3,242.1z"/>
	<path class="st94" d="M338.3,242.1c-1.5,0-3,0.1-3.5-1.7c1.1-1.7,2.6-3.5,4.6-2.1C341.9,240,339.1,240.9,338.3,242.1z"/>
</g>
<g id="Laag_2">
	<path class="st95" d="M854.9,248.3c-4-1.2-2.8-4.4-2.7-7c0.4-5.6,0.8-11.3,1.5-16.9c0.6-5.3-0.7-8.1-6.7-6.3
		c-4.5,1.3-7.2,1.2-7.9-5.1c-1.2-10.3-5.8-12.3-16.1-8.9c-2.4,0.8-5.8,3.8-6.9-1.7v0l0,0c-9.8,1.2-19.5,4.7-27.6,8.9
		c-6,3.1-8.3,2.2-12.4-0.5c-2.1-1.4-4.4-2.6-6.9-3.3c-3.6-1-6.8,0.5-5.9,4.5c2.9,13-8.6,17.3-14.4,25c-1.3,1.7-6.3,1.3-4,4.7
		c1.7,2.5,5.4,0.8,7.6-1c3.5-3,6.7-6.3,9.1-8.6c5.1-0.3-5.4,9.4,5,5.3c2.5-1.2,1.5-4.7,3.9-6.6c-1.6,4.8-2.1,9.3-3.5,13.6
		c0.2,2.6-0.4,5.1-1.9,7.3c-1.1,1.5-4,3-1.5,4.9c1.8,1.4,3.6-1,5.4-1.9c2-1.1,2.1-3.3,2.8-5.3c2.1-5.6,3.3-11.7,7.4-17.4
		c4.2,8.6,1.2,18.9,8.6,25.5c-1.3-9-1.2-18-1.7-26.9c4.9,0.2,5.3,4.1,7,6.8c5.8,9.5,12.6,18.6,25.2,17.2
		c11.6-1.3,23.2-4.2,25.9-18.6c1.6-1,1.5-2.8,1.5-3.3c2.9,5.3-1.7,12.8,3.1,18.9c2.2,0.9,4.6,2.7,6.8,1.3
		C857.8,251.3,855,249.8,854.9,248.3z"/>
	<path class="st96" d="M766.7,237.3c0.3-2.5,0.5-5,0.9-7.6c0.5-3,2.9-3.7,5.2-3.2c3.6,0.9,1.1,3,0.4,4.5c-1.9,4.4-4,8.8-6.1,13.1
		C766.1,242,768.5,239.5,766.7,237.3z"/>
	<path class="st97" d="M806.9,223.7c-3.5,0-7.2-0.3-6.5-4c1-5.1,6-5.9,10.4-6.2c2.9-0.2,7.7-0.3,6.8,3.8
		C816.5,222.2,810.9,222.8,806.9,223.7z"/>
	<path class="st98" d="M777.4,219.8c-3,0.2-6.5,2.7-8.6-1.2c-0.4-0.6,0.1-2.5,0.6-2.7C773.3,214.3,774.5,218.8,777.4,219.8z"/>
	<path class="st99" d="M828.1,222.1c-0.9-0.4-2.1-0.4-1.9-1.9c0.2-1.2,1.2-1.6,2.2-1.3c0.6,0.2,1.3,0.8,1.5,1.4
		C830.4,221.8,829,221.8,828.1,222.1z"/>
	<path class="st100" d="M844.2,235.8c-0.2-2.8-0.4-5.6-0.7-8.4c-0.2-1.5-0.7-3.3,1.6-3.4c1.9-0.1,2.6,1.5,2.6,3.1
		c-0.1,3.8-0.2,7.7-0.6,11.5c-0.4,4.4-0.7,8.7,1.7,12.7c-4.1-0.8-2.8-4.2-3.2-6.8C845.2,241.7,846.8,238.4,844.2,235.8z"/>
</g>
</svg>
